<?xml version="1.0" encoding="UTF-8" standalone="no"?>
<svg
   xmlns:dc="http://purl.org/dc/elements/1.1/"
   xmlns:cc="http://creativecommons.org/ns#"
   xmlns:rdf="http://www.w3.org/1999/02/22-rdf-syntax-ns#"
   xmlns:svg="http://www.w3.org/2000/svg"
   xmlns="http://www.w3.org/2000/svg"
   xmlns:sodipodi="http://sodipodi.sourceforge.net/DTD/sodipodi-0.dtd"
   xmlns:inkscape="http://www.inkscape.org/namespaces/inkscape"
   width="325pt"
   height="300pt"
   viewBox="0 0 325 300"
   version="1.1"
   id="svg9"
   sodipodi:docname="merakit.svg"
   inkscape:version="0.92.5 (2060ec1f9f, 2020-04-08)">
  <metadata
     id="metadata15">
    <rdf:RDF>
      <cc:Work
         rdf:about="">
        <dc:format>image/svg+xml</dc:format>
        <dc:type
           rdf:resource="http://purl.org/dc/dcmitype/StillImage" />
        <dc:title />
      </cc:Work>
    </rdf:RDF>
  </metadata>
  <defs
     id="defs13" />
  <sodipodi:namedview
     pagecolor="#ffffff"
     bordercolor="#666666"
     borderopacity="1"
     objecttolerance="10"
     gridtolerance="10"
     guidetolerance="10"
     inkscape:pageopacity="0"
     inkscape:pageshadow="2"
     inkscape:window-width="3840"
     inkscape:window-height="2032"
     id="namedview11"
     showgrid="false"
     inkscape:zoom="2.36"
     inkscape:cx="-15.959241"
     inkscape:cy="282.05092"
     inkscape:window-x="0"
     inkscape:window-y="54"
     inkscape:window-maximized="1"
     inkscape:current-layer="svg9"
     inkscape:snap-bbox="true"
     inkscape:snap-bbox-midpoints="true"
     inkscape:snap-nodes="true"
     inkscape:snap-object-midpoints="true" />
  <path
     inkscape:connector-curvature="0"
     id="path880"
     d="M 162.5,102.38788 V 16.153162"
     style="fill:none;stroke:#282828;stroke-width:12.375;stroke-linecap:round;stroke-linejoin:miter;stroke-miterlimit:4;stroke-dasharray:none;stroke-opacity:1"
     sodipodi:nodetypes="cc" />
  <path
     inkscape:connector-curvature="0"
     id="path923"
     d="M 129.29026,213.84543 V 127.61071"
     style="fill:none;stroke:#282828;stroke-width:12.375;stroke-linecap:round;stroke-linejoin:miter;stroke-miterlimit:4;stroke-dasharray:none;stroke-opacity:1"
     sodipodi:nodetypes="cc" />
  <path
     sodipodi:nodetypes="cc"
     style="fill:none;stroke:#282828;stroke-width:12.375;stroke-linecap:round;stroke-linejoin:miter;stroke-miterlimit:4;stroke-dasharray:none;stroke-opacity:1"
     d="M 262.73075,213.84543 V 127.61071"
     id="path931"
     inkscape:connector-curvature="0" />
  <path
     inkscape:connector-curvature="0"
     id="path933"
     d="M 195.51677,213.84543 V 127.61071"
     style="fill:none;stroke:#282828;stroke-width:12.375;stroke-linecap:round;stroke-linejoin:miter;stroke-miterlimit:4;stroke-dasharray:none;stroke-opacity:1"
     sodipodi:nodetypes="cc" />
  <path
     inkscape:connector-curvature="0"
     id="path935"
     d="M 262.73075,292.27136 V 206.03664"
     style="fill:none;stroke:#282828;stroke-width:12.375;stroke-linecap:round;stroke-linejoin:miter;stroke-miterlimit:4;stroke-dasharray:none;stroke-opacity:1"
     sodipodi:nodetypes="cc" />
  <path
     sodipodi:nodetypes="cc"
     style="fill:none;stroke:#282828;stroke-width:12.375;stroke-linecap:round;stroke-linejoin:miter;stroke-miterlimit:4;stroke-dasharray:none;stroke-opacity:1"
     d="M 195.51677,292.27136 V 206.03664"
     id="path937"
     inkscape:connector-curvature="0" />
  <path
     sodipodi:nodetypes="cc"
     style="fill:none;stroke:#282828;stroke-width:12.375;stroke-linecap:round;stroke-linejoin:miter;stroke-miterlimit:4;stroke-dasharray:none;stroke-opacity:1"
     d="M 62.076273,213.84543 V 127.61071"
     id="path925"
     inkscape:connector-curvature="0" />
  <path
     sodipodi:nodetypes="cc"
     style="fill:none;stroke:#282828;stroke-width:12.375;stroke-linecap:round;stroke-linejoin:miter;stroke-miterlimit:4;stroke-dasharray:none;stroke-opacity:1"
     d="M 129.29026,292.27136 V 206.03664"
     id="path919"
     inkscape:connector-curvature="0" />
  <path
     inkscape:connector-curvature="0"
     id="path921"
     d="M 62.076273,292.27136 V 206.03664"
     style="fill:none;stroke:#282828;stroke-width:12.375;stroke-linecap:round;stroke-linejoin:miter;stroke-miterlimit:4;stroke-dasharray:none;stroke-opacity:1"
     sodipodi:nodetypes="cc" />
  <path
     style="fill:#ca3a33;fill-opacity:1;stroke:#060606;stroke-width:0;stroke-linecap:round;stroke-linejoin:round;stroke-miterlimit:4;stroke-dasharray:none;stroke-dashoffset:75.59055328;stroke-opacity:1"
     d="M 137.70444,178.02921 H 53.805079 c 0,0 -2.853414,0.001 -4.631255,1.33916 -1.777841,1.33787 -1.989571,3.64318 -1.989571,3.64318 l -8.792208,69.75269 c 0,0 -0.134486,2.59507 1.446337,3.78329 1.580823,1.18822 5.182243,1.19905 5.182243,1.19905 H 146.61295 c 0,0 3.52038,-0.008 5.12219,-1.2131 1.60182,-1.2054 1.49864,-3.76924 1.49864,-3.76924 l -8.90076,-69.75269 c 0,0 -0.1606,-2.42962 -1.85441,-3.70277 -1.69382,-1.27315 -4.77417,-1.27957 -4.77417,-1.27957 z"
     id="rect899"
     inkscape:connector-curvature="0"
     sodipodi:nodetypes="cczcczcczcczc" />
  <path
     style="fill:#389723;fill-opacity:1;stroke:#060606;stroke-width:0;stroke-linecap:round;stroke-linejoin:round;stroke-miterlimit:4;stroke-dasharray:none;stroke-dashoffset:75.59055328;stroke-opacity:1"
     d="m 166.1283,60.49541 c 17.51813,24.055667 35.72551,49.05789 50.79616,69.7527 1.67847,2.29662 1.23912,4.98237 -3.6283,4.98234 H 111.70383 c -4.10813,0 -5.183,-2.28952 -3.6283,-4.98234 17.46325,-23.98033 35.68884,-49.00751 50.79617,-69.7527 1.45594,-1.98273 5.87298,-1.951214 7.2566,0 z"
     id="rect912"
     inkscape:connector-curvature="0"
     sodipodi:nodetypes="ccccccc" />
  <path
     sodipodi:nodetypes="cczcczcczcczc"
     inkscape:connector-curvature="0"
     id="path1933"
     d="m 271.07549,178.02921 h -83.89936 c 0,0 -2.85341,0.001 -4.63125,1.33916 -1.77784,1.33787 -1.98957,3.64318 -1.98957,3.64318 l -8.79221,69.75269 c 0,0 -0.13449,2.59507 1.44633,3.78329 1.58083,1.18822 5.18225,1.19905 5.18225,1.19905 H 279.984 c 0,0 3.52038,-0.008 5.12219,-1.2131 1.60182,-1.2054 1.49864,-3.76924 1.49864,-3.76924 l -8.90076,-69.75269 c 0,0 -0.1606,-2.42962 -1.85441,-3.70277 -1.69382,-1.27315 -4.77417,-1.27957 -4.77417,-1.27957 z"
     style="fill:#9457b0;fill-opacity:1;stroke:#060606;stroke-width:0;stroke-linecap:round;stroke-linejoin:round;stroke-miterlimit:4;stroke-dasharray:none;stroke-dashoffset:75.59055328;stroke-opacity:1" />
</svg>
