<?xml version="1.0" encoding="UTF-8" standalone="no"?>
<svg
   xmlns:dc="http://purl.org/dc/elements/1.1/"
   xmlns:cc="http://creativecommons.org/ns#"
   xmlns:rdf="http://www.w3.org/1999/02/22-rdf-syntax-ns#"
   xmlns:svg="http://www.w3.org/2000/svg"
   xmlns="http://www.w3.org/2000/svg"
   xmlns:sodipodi="http://sodipodi.sourceforge.net/DTD/sodipodi-0.dtd"
   xmlns:inkscape="http://www.inkscape.org/namespaces/inkscape"
   width="325pt"
   height="300pt"
   viewBox="0 0 325 300"
   version="1.1"
   id="svg9"
   sodipodi:docname="optimkit.svg"
   inkscape:version="0.92.5 (2060ec1f9f, 2020-04-08)">
  <metadata
     id="metadata15">
    <rdf:RDF>
      <cc:Work
         rdf:about="">
        <dc:format>image/svg+xml</dc:format>
        <dc:type
           rdf:resource="http://purl.org/dc/dcmitype/StillImage" />
        <dc:title />
      </cc:Work>
    </rdf:RDF>
  </metadata>
  <defs
     id="defs13" />
  <sodipodi:namedview
     pagecolor="#ffffff"
     bordercolor="#666666"
     borderopacity="1"
     objecttolerance="10"
     gridtolerance="10"
     guidetolerance="10"
     inkscape:pageopacity="0"
     inkscape:pageshadow="2"
     inkscape:window-width="3840"
     inkscape:window-height="2032"
     id="namedview11"
     showgrid="false"
     inkscape:zoom="1.18"
     inkscape:cx="186.52162"
     inkscape:cy="80.49853"
     inkscape:window-x="0"
     inkscape:window-y="54"
     inkscape:window-maximized="1"
     inkscape:current-layer="svg9"
     inkscape:snap-bbox="true"
     inkscape:snap-bbox-midpoints="true"
     inkscape:snap-nodes="true"
     inkscape:snap-object-midpoints="true" />
  <path
     style="fill:none;stroke:#7f7f7f;stroke-width:1.5;stroke-linecap:butt;stroke-linejoin:miter;stroke-miterlimit:4;stroke-dasharray:none;stroke-dashoffset:0;stroke-opacity:1"
     d="m -107.3906,80.295327 c 54.497233,-8.204568 155.508765,30.100703 233.69516,73.789903 68.43284,38.23908 204.04363,83.42964 238.27183,187.69886"
     id="path7546"
     inkscape:connector-curvature="0"
     sodipodi:nodetypes="csc" />
  <path
     sodipodi:nodetypes="ssss"
     inkscape:connector-curvature="0"
     id="path7510"
     d="m 143.3725,268.40394 c -30.42683,54.53285 -118.063485,20.67994 -106.089953,-53.44326 8.845109,-54.75643 55.554427,-51.94226 78.705923,-39.25303 24.42462,13.38703 49.75647,52.59903 27.38403,92.69629 z"
     style="fill:none;stroke:#ab5652;stroke-width:1.5;stroke-linecap:butt;stroke-linejoin:miter;stroke-miterlimit:4;stroke-dasharray:none;stroke-dashoffset:0;stroke-opacity:1" />
  <path
     style="fill:none;stroke:#bc4741;stroke-width:1.5;stroke-linecap:butt;stroke-linejoin:miter;stroke-miterlimit:4;stroke-dasharray:none;stroke-dashoffset:0;stroke-opacity:1"
     d="m 127.81384,226.61938 c -1.72229,14.58678 -7.18734,34.03352 -30.750898,34.81553 -23.527278,0.78081 -57.607816,-26.53136 -36.027786,-62.06811 27.603771,-45.45629 69.838354,1.33904 66.778684,27.25258 z"
     id="path7512"
     inkscape:connector-curvature="0"
     sodipodi:nodetypes="ssss" />
  <path
     sodipodi:nodetypes="ssss"
     inkscape:connector-curvature="0"
     id="path7514"
     d="m 105.24951,216.55125 c -11.728302,21.16034 -42.272292,7.32576 -31.377925,-14.15195 6.445473,-12.70693 18.61957,-11.83758 26.287665,-5.66193 5.87341,4.73027 9.10322,12.57366 5.09026,19.81388 z"
     style="fill:none;stroke:#ca3a33;stroke-width:1.5;stroke-linecap:butt;stroke-linejoin:miter;stroke-miterlimit:4;stroke-dasharray:none;stroke-dashoffset:0;stroke-opacity:1" />
  <path
     style="fill:none;stroke:#487d3d;stroke-width:1.5;stroke-linecap:butt;stroke-linejoin:miter;stroke-miterlimit:4;stroke-dasharray:none;stroke-dashoffset:0;stroke-opacity:1"
     d="m 229.87164,98.557705 c -6.47098,38.416635 -63.83203,56.609155 -93.71621,36.539165 -19.93336,-13.38709 -31.92231,-46.108915 -20.67062,-68.291076 16.13602,-31.811373 39.4781,-37.976285 69.68884,-35.128189 30.86303,2.90959 51.2721,27.851211 44.69799,66.8801 z"
     id="path7516"
     inkscape:connector-curvature="0"
     sodipodi:nodetypes="sssss" />
  <path
     sodipodi:nodetypes="ssss"
     inkscape:connector-curvature="0"
     id="path7518"
     d="m 194.46038,109.751 c -16.01381,42.61429 -83.81243,12.66114 -63.31274,-27.752971 15.99143,-31.526306 52.07442,-25.994883 62.11627,-4.275734 3.40764,7.370245 4.25264,23.895945 1.19647,32.028705 z"
     style="fill:none;stroke:#408a30;stroke-width:1.5;stroke-linecap:butt;stroke-linejoin:miter;stroke-miterlimit:4;stroke-dasharray:none;stroke-dashoffset:0;stroke-opacity:1" />
  <path
     style="fill:none;stroke:#389723;stroke-width:1.49999998;stroke-linecap:butt;stroke-linejoin:miter;stroke-miterlimit:4;stroke-dasharray:none;stroke-dashoffset:0;stroke-opacity:1"
     d="m 175.69752,104.09606 c -11.72833,21.16032 -41.93369,5.78292 -31.0393,-15.694785 11.38241,-22.439857 40.29143,-0.997986 31.0393,15.694785 z"
     id="path7520"
     inkscape:connector-curvature="0"
     sodipodi:nodetypes="sss" />
  <path
     sodipodi:nodetypes="ssss"
     inkscape:connector-curvature="0"
     id="path7524"
     d="M 273.71717,117.32863 C 238.14963,168.73787 169.19677,165.94377 129.55161,141.99481 100.02758,124.15985 72.350594,69.490939 98.199919,31.510151 170.88956,-75.293787 353.67708,1.7547711 273.71717,117.32863 Z"
     style="fill:none;stroke:#51704a;stroke-width:1.5;stroke-linecap:butt;stroke-linejoin:miter;stroke-miterlimit:4;stroke-dasharray:none;stroke-dashoffset:0;stroke-opacity:1" />
  <path
     style="fill:none;stroke:#996764;stroke-width:1.5;stroke-linecap:butt;stroke-linejoin:miter;stroke-miterlimit:4;stroke-dasharray:none;stroke-dashoffset:0;stroke-opacity:1"
     d="m 184.03963,276.53595 c -5.56405,53.88784 -22.39728,61.61682 -73.16258,62.82543 C 36.505835,341.13199 9.201662,254.8715 26.747379,196.65729 40.119701,152.28981 91.54958,149.75132 126.85442,171.57123 c 31.17766,19.26915 62.12232,57.14875 57.18521,104.96472 z"
     id="path7526"
     inkscape:connector-curvature="0"
     sodipodi:nodetypes="sssss" />
  <path
     sodipodi:nodetypes="csc"
     inkscape:connector-curvature="0"
     id="path7528"
     d="m -74.975346,170.86736 c 33.20486,-35.21728 121.775784,-54.04297 199.962186,-10.35377 68.43284,38.23908 149.42915,131.3445 75.6065,233.38914"
     style="fill:none;stroke:#877676;stroke-width:1.5;stroke-linecap:butt;stroke-linejoin:miter;stroke-miterlimit:4;stroke-dasharray:none;stroke-dashoffset:0;stroke-opacity:1" />
  <path
     style="fill:none;stroke:#596456;stroke-width:1.5;stroke-linecap:butt;stroke-linejoin:miter;stroke-miterlimit:4;stroke-dasharray:none;stroke-dashoffset:0;stroke-opacity:1"
     d="M 429.51189,74.615273 C 388.56137,169.89644 222.64583,201.70276 131.6475,150.39851 53.244379,106.19536 -0.93661492,15.940893 19.816725,-91.688652"
     id="path7530"
     inkscape:connector-curvature="0"
     sodipodi:nodetypes="csc" />
  <path
     sodipodi:nodetypes="cc"
     inkscape:connector-curvature="0"
     id="path7534"
     d="m 225.67447,210.22386 c -28.68563,23.20022 -82.10803,35.08198 -136.379008,-0.50479"
     style="fill:none;stroke:#9457b0;stroke-width:1.77611494;stroke-linecap:butt;stroke-linejoin:miter;stroke-miterlimit:4;stroke-dasharray:none;stroke-opacity:1" />
  <path
     inkscape:connector-curvature="0"
     id="path6"
     d="m 242.70414,211.21161 c 0,9.99041 -8.0986,18.089 -18.089,18.089 -9.99041,0 -18.08901,-8.09859 -18.08901,-18.089 0,-9.9904 8.0986,-18.089 18.08901,-18.089 9.9904,0 18.089,8.0986 18.089,18.089"
     style="fill:#9457b0;fill-opacity:1;fill-rule:nonzero;stroke:none;stroke-width:0.24118671" />
  <g
     inkscape:transform-center-y="5.5208414"
     inkscape:transform-center-x="8.3512892"
     style="stroke-linecap:butt;stroke-linejoin:round"
     transform="matrix(-3.8613858,-0.27137294,0.27137294,-3.8613858,1257.4261,-7520.28)"
     id="g7544">
    <path
       sodipodi:nodetypes="cc"
       inkscape:connector-curvature="0"
       id="path7536"
       d="m 126.13261,-2011.1227 14.394,-11.2925"
       style="fill:none;stroke:#9457b0;stroke-width:0.77501154;stroke-linecap:round;stroke-linejoin:miter;stroke-miterlimit:4;stroke-dasharray:none;stroke-opacity:1" />
    <g
       style="stroke-linecap:butt;stroke-linejoin:round"
       id="g7542">
      <path
         style="fill:none;stroke:#9457b0;stroke-width:0.77501154;stroke-linecap:round;stroke-linejoin:miter;stroke-miterlimit:4;stroke-dasharray:none;stroke-opacity:1"
         d="m 140.59371,-2022.47 -0.0994,2.326"
         id="path7538"
         inkscape:connector-curvature="0"
         sodipodi:nodetypes="cc" />
      <path
         sodipodi:nodetypes="cc"
         inkscape:connector-curvature="0"
         id="path7540"
         d="m 140.58106,-2022.483 -2.32602,-0.1"
         style="fill:none;stroke:#9457b0;stroke-width:0.77501154;stroke-linecap:round;stroke-linejoin:miter;stroke-miterlimit:4;stroke-dasharray:none;stroke-opacity:1" />
    </g>
  </g>
</svg>
