<?xml version="1.0" encoding="UTF-8" standalone="no"?>
<svg
   xmlns:dc="http://purl.org/dc/elements/1.1/"
   xmlns:cc="http://creativecommons.org/ns#"
   xmlns:rdf="http://www.w3.org/1999/02/22-rdf-syntax-ns#"
   xmlns:svg="http://www.w3.org/2000/svg"
   xmlns="http://www.w3.org/2000/svg"
   xmlns:sodipodi="http://sodipodi.sourceforge.net/DTD/sodipodi-0.dtd"
   xmlns:inkscape="http://www.inkscape.org/namespaces/inkscape"
   width="325pt"
   height="300pt"
   viewBox="0 0 325 300"
   version="1.1"
   id="svg9"
   sodipodi:docname="wignersymbols.svg"
   inkscape:version="0.92.5 (2060ec1f9f, 2020-04-08)">
  <metadata
     id="metadata15">
    <rdf:RDF>
      <cc:Work
         rdf:about="">
        <dc:format>image/svg+xml</dc:format>
        <dc:type
           rdf:resource="http://purl.org/dc/dcmitype/StillImage" />
        <dc:title />
      </cc:Work>
    </rdf:RDF>
  </metadata>
  <defs
     id="defs13" />
  <sodipodi:namedview
     pagecolor="#ffffff"
     bordercolor="#666666"
     borderopacity="1"
     objecttolerance="10"
     gridtolerance="10"
     guidetolerance="10"
     inkscape:pageopacity="0"
     inkscape:pageshadow="2"
     inkscape:window-width="3840"
     inkscape:window-height="2032"
     id="namedview11"
     showgrid="false"
     inkscape:zoom="2.36"
     inkscape:cx="168.18314"
     inkscape:cy="236.00352"
     inkscape:window-x="0"
     inkscape:window-y="54"
     inkscape:window-maximized="1"
     inkscape:current-layer="svg9"
     inkscape:snap-bbox="true"
     inkscape:snap-bbox-midpoints="true"
     inkscape:snap-nodes="true"
     inkscape:snap-object-midpoints="true" />
  <path
     style="fill:none;stroke:#b0b0b0;stroke-width:11.25;stroke-linecap:round;stroke-linejoin:miter;stroke-miterlimit:4;stroke-dasharray:none;stroke-dashoffset:112.5;stroke-opacity:1"
     d="M 280.63336,253.22942 162.49999,185.45051"
     id="path846"
     inkscape:connector-curvature="0"
     sodipodi:nodetypes="cc" />
  <path
     sodipodi:nodetypes="cc"
     inkscape:connector-curvature="0"
     id="path848"
     d="M 44.366646,253.22942 162.49999,185.45051"
     style="fill:none;stroke:#b0b0b0;stroke-width:11.25;stroke-linecap:round;stroke-linejoin:miter;stroke-miterlimit:4;stroke-dasharray:none;stroke-dashoffset:112.5;stroke-opacity:1" />
  <path
     sodipodi:nodetypes="cc"
     inkscape:connector-curvature="0"
     id="path850"
     d="m 162.5,48.614129 -1e-5,136.836381"
     style="fill:none;stroke:#b0b0b0;stroke-width:11.25;stroke-linecap:round;stroke-linejoin:miter;stroke-miterlimit:4;stroke-dasharray:none;stroke-dashoffset:112.5;stroke-opacity:1" />
  <path
     style="fill:none;stroke:#b0b0b0;stroke-width:11.25;stroke-linecap:round;stroke-linejoin:miter;stroke-miterlimit:4;stroke-dasharray:none;stroke-dashoffset:112.5;stroke-opacity:1"
     d="M 280.63336,253.22942 H 44.366646"
     id="path878"
     inkscape:connector-curvature="0"
     sodipodi:nodetypes="cc" />
  <path
     style="fill:none;stroke:#b0b0b0;stroke-width:11.25;stroke-linecap:round;stroke-linejoin:miter;stroke-miterlimit:4;stroke-dasharray:none;stroke-dashoffset:112.5;stroke-opacity:1"
     d="M 162.5,48.614129 44.366646,253.22942"
     id="path874"
     inkscape:connector-curvature="0"
     sodipodi:nodetypes="cc" />
  <path
     inkscape:connector-curvature="0"
     id="path2"
     d="m 83.929325,253.22942 c 0,21.85013 -17.712546,39.56268 -39.562679,39.56268 -21.850142,0 -39.5626816,-17.71255 -39.5626816,-39.56268 0,-21.85013 17.7125396,-39.56267 39.5626816,-39.56267 21.850133,0 39.562679,17.71254 39.562679,39.56267"
     style="fill:#ca3a33;fill-opacity:1;fill-rule:nonzero;stroke:none;stroke-width:0.52750242" />
  <path
     sodipodi:nodetypes="cc"
     inkscape:connector-curvature="0"
     id="path876"
     d="M 280.63336,253.22942 162.5,48.614129"
     style="fill:none;stroke:#b0b0b0;stroke-width:11.25;stroke-linecap:round;stroke-linejoin:miter;stroke-miterlimit:4;stroke-dasharray:none;stroke-dashoffset:112.5;stroke-opacity:1" />
  <path
     inkscape:connector-curvature="0"
     id="path4"
     d="m 202.06267,48.614129 c 0,21.850137 -17.71254,39.562681 -39.56267,39.562681 -21.85013,0 -39.56268,-17.712544 -39.56268,-39.562681 0,-21.850136 17.71255,-39.5626759 39.56268,-39.5626759 21.85013,0 39.56267,17.7125399 39.56267,39.5626759"
     style="fill:#389723;fill-opacity:1;fill-rule:nonzero;stroke:none;stroke-width:0.5275023" />
  <path
     inkscape:connector-curvature="0"
     id="path6"
     d="m 320.19603,253.22942 c 0,21.85013 -17.71254,39.56268 -39.56267,39.56268 -21.85013,0 -39.56269,-17.71255 -39.56269,-39.56268 0,-21.85013 17.71256,-39.56267 39.56269,-39.56267 21.85013,0 39.56267,17.71254 39.56267,39.56267"
     style="fill:#9457b0;fill-opacity:1;fill-rule:nonzero;stroke:none;stroke-width:0.52750242" />
  <path
     style="fill:#5d5d5d;fill-opacity:1;fill-rule:nonzero;stroke:none;stroke-width:0.5275023"
     d="m 202.06267,185.45051 c 0,21.85014 -17.71254,39.56268 -39.56267,39.56268 -21.85013,0 -39.56268,-17.71254 -39.56268,-39.56268 0,-21.85014 17.71255,-39.56269 39.56268,-39.56269 21.85013,0 39.56267,17.71255 39.56267,39.56269"
     id="path844"
     inkscape:connector-curvature="0" />
</svg>
