<?xml version="1.0" encoding="UTF-8"?>
<!DOCTYPE svg PUBLIC "-//W3C//DTD SVG 1.1//EN" "http://www.w3.org/Graphics/SVG/1.1/DTD/svg11.dtd">
<svg version="1.1" xmlns="http://www.w3.org/2000/svg" xmlns:xlink="http://www.w3.org/1999/xlink" viewBox="0, 0, 450, 300">
  <g id="Background">
    <rect x="0" y="0" width="450" height="300" fill="#FFFFFF"/>
  </g>
  <g id="Layer_1">
    <g id="g5762">
      <path d="M3,144.659 C72.644,148.651 164.346,179.751 278.393,281.029" fill-opacity="0" stroke="#DAC5C5" stroke-width="0.85" stroke-dasharray="3.402,1.701" id="path5674"/>
      <path d="M30.653,117.763 C109.043,121.696 205.91,159.51 306.046,254.134" fill-opacity="0" stroke="#DAC5C5" stroke-width="0.85" stroke-dasharray="3.402,1.701" id="path5676"/>
      <path d="M64.746,95.793 C143.235,102.454 242.489,141.338 340.138,232.163" fill-opacity="0" stroke="#DAC5C5" stroke-width="0.85" stroke-dasharray="3.402,1.701" id="path5678"/>
      <path d="M93.535,72.685 C171.975,80.035 271.359,118.519 368.928,209.056" fill-opacity="0" stroke="#DAC5C5" stroke-width="0.85" stroke-dasharray="3.402,1.701" id="path5680"/>
      <path d="M118.536,51.093 C202.488,59.295 298.667,98.38 393.929,187.464" fill-opacity="0" stroke="#DAC5C5" stroke-width="0.85" stroke-dasharray="3.402,1.701" id="path5682"/>
      <path d="M143.537,28.365 C225.809,34.83 323.586,75.657 418.93,164.735" fill-opacity="0" stroke="#DAC5C5" stroke-width="0.85" stroke-dasharray="3.402,1.701" id="path5684"/>
    </g>
    <g id="g5754">
      <path d="M403.399,124.961 C354.711,138.471 277.1,210.493 228.011,275.347" fill-opacity="0" stroke="#DAC5C5" stroke-width="1.417" stroke-dasharray="5.669,2.835" id="path5686"/>
      <path d="M369.307,99.581 C320.619,113.091 243.007,185.113 193.919,249.967" fill-opacity="0" stroke="#DAC5C5" stroke-width="1.417" stroke-dasharray="5.669,2.835" id="path5688"/>
      <path d="M333.699,76.852 C285.011,90.363 207.4,162.384 158.311,227.239" fill-opacity="0" stroke="#DAC5C5" stroke-width="1.417" stroke-dasharray="5.669,2.835" id="path5690"/>
      <path d="M296.576,58.669 C247.888,72.18 170.277,144.202 121.188,209.056" fill-opacity="0" stroke="#DAC5C5" stroke-width="1.417" stroke-dasharray="5.669,2.835" id="path5692"/>
      <path d="M263.241,42.002 C214.553,55.513 136.941,127.534 87.853,192.388" fill-opacity="0" stroke="#DAC5C5" stroke-width="1.417" stroke-dasharray="5.669,2.835" id="path5694"/>
      <path d="M228.769,31.395 C180.081,44.906 102.47,116.927 53.381,181.782" fill-opacity="0" stroke="#DAC5C5" stroke-width="1.417" stroke-dasharray="5.669,2.835" id="path5696"/>
      <path d="M199.601,22.683 C150.913,36.193 73.302,108.215 24.213,173.069" fill-opacity="0" stroke="#DAC5C5" stroke-width="1.417" stroke-dasharray="5.669,2.835" id="path5698"/>
    </g>
    <path d="M120.051,149.773 C120.051,153.852 116.744,157.159 112.665,157.159 C108.585,157.159 105.278,153.852 105.278,149.773 C105.278,145.693 108.585,142.386 112.665,142.386 C116.744,142.386 120.051,145.693 120.051,149.773 z" fill="#000000" id="path5796"/>
    <path d="M294.113,126.76 C294.113,130.473 291.103,133.484 287.39,133.484 C283.676,133.484 280.666,130.473 280.666,126.76 C280.666,123.047 283.676,120.036 287.39,120.036 C291.103,120.036 294.113,123.047 294.113,126.76 z" fill="#000000" id="circle5798"/>
    <path d="M110.771,151.098 C161.27,120.819 294.72,123.548 360.026,133.673" fill-opacity="0" stroke="#000000" stroke-width="2.835" id="path5800"/>
    <g id="g15626">
      <path d="M112.665,149.773 L214.184,100.089" fill-opacity="0" stroke="#000000" stroke-width="1.965" stroke-linejoin="round" id="path15586"/>
      <g id="g15620">
        <path d="M214.91,98.894 L211.312,112.82" fill-opacity="0" stroke="#000000" stroke-width="1.965" stroke-linejoin="round" id="path15588"/>
        <path d="M215.643,100.024 L201.718,96.423" fill-opacity="0" stroke="#000000" stroke-width="1.965" stroke-linejoin="round" id="path15594"/>
      </g>
    </g>
    <g id="g15636">
      <path d="M112.665,149.773 L208.568,209.582" fill-opacity="0" stroke="#000000" stroke-width="1.965" stroke-linejoin="round" id="path15628"/>
      <g id="g15634">
        <path d="M209.966,209.565 L196.248,213.887" fill-opacity="0" stroke="#000000" stroke-width="1.965" stroke-linejoin="round" id="path15630"/>
        <path d="M209.396,210.785 L205.077,197.066" fill-opacity="0" stroke="#000000" stroke-width="1.965" stroke-linejoin="round" id="path15632"/>
      </g>
    </g>
    <g id="g5844">
      <path d="M287.389,126.76 L342.598,225.383" fill-opacity="0" stroke="#000000" stroke-width="1.965" stroke-linejoin="round" id="path5836"/>
      <g id="g5842">
        <path d="M343.832,226.042 L329.729,223.218" fill-opacity="0" stroke="#000000" stroke-width="1.965" stroke-linejoin="round" id="path5838"/>
        <path d="M342.744,226.836 L345.572,212.734" fill-opacity="0" stroke="#000000" stroke-width="1.965" stroke-linejoin="round" id="path5840"/>
      </g>
    </g>
    <path d="M100.883,138.866 L100.965,138.698 L101.046,138.539 L101.169,138.384 L101.25,138.233 L101.332,138.16 L101.373,138.091 L101.413,138.022 L101.495,137.952 L101.536,137.887 L101.576,137.826 L101.658,137.764 L101.699,137.703 L101.78,137.65 L101.862,137.593 L101.903,137.544 L101.984,137.495 L102.066,137.446 L102.147,137.406 L102.229,137.365 L102.31,137.324 L102.392,137.291 L102.514,137.259 L102.596,137.23 L102.718,137.204 L102.8,137.179 L102.922,137.162 L103.044,137.145 L103.126,137.131 C103.33,137.114 103.534,137.114 103.534,136.723 C103.534,136.649 103.452,136.503 103.289,136.503 C102.8,136.503 102.229,136.564 101.739,136.564 C101.046,136.564 100.271,136.503 99.619,136.503 C99.496,136.503 99.211,136.503 99.211,136.89 C99.211,137.114 99.415,137.131 99.537,137.131 C100.027,137.15 100.72,137.318 100.72,137.922 C100.72,138.146 100.638,138.309 100.475,138.599 L94.97,148.162 L94.236,138.089 C94.195,137.681 94.154,137.151 95.622,137.131 C95.989,137.131 96.193,137.131 96.193,136.723 C96.193,136.519 95.989,136.503 95.908,136.503 C95.092,136.503 94.236,136.564 93.42,136.564 C92.931,136.564 91.748,136.503 91.259,136.503 C91.137,136.503 90.892,136.503 90.892,136.91 C90.892,137.131 91.096,137.131 91.381,137.131 C92.278,137.131 92.401,137.253 92.441,137.64 L92.564,139.202 L87.425,148.162 L86.651,137.865 C86.651,137.624 86.651,137.151 88.2,137.131 C88.404,137.131 88.649,137.131 88.649,136.723 C88.649,136.503 88.404,136.503 88.363,136.503 C87.548,136.503 86.691,136.564 85.835,136.564 C85.142,136.564 84.408,136.503 83.715,136.503 C83.633,136.503 83.347,136.503 83.347,136.89 C83.347,137.131 83.551,137.131 83.878,137.131 C84.897,137.131 84.897,137.318 84.938,137.885 L85.835,150.299 C85.876,150.666 85.917,150.825 86.202,150.825 C86.406,150.825 86.488,150.706 86.651,150.401 L92.645,140.038 L93.379,150.299 C93.42,150.723 93.461,150.825 93.706,150.825 C93.991,150.825 94.113,150.621 94.195,150.441 z" fill="#000000" id="path7239"/>
    <path d="M218.195,84.621 L216.483,80.579 C216.401,80.412 216.36,80.339 216.36,80.319 C216.36,80.192 216.727,79.809 217.584,79.727 C217.788,79.708 217.992,79.687 217.992,79.336 C217.992,79.095 217.747,79.095 217.665,79.095 C216.85,79.095 215.953,79.161 215.137,79.161 C214.607,79.161 213.343,79.095 212.853,79.095 C212.731,79.095 212.486,79.095 212.486,79.503 C212.486,79.727 212.69,79.727 212.935,79.727 C214.158,79.727 214.281,79.931 214.484,80.376 L216.85,86.048 L212.568,90.66 L212.323,90.885 C211.304,91.961 210.366,92.283 209.346,92.34 C209.061,92.36 208.898,92.36 208.898,92.748 C208.898,92.768 208.898,92.973 209.142,92.973 C209.754,92.973 210.406,92.907 211.059,92.907 C211.793,92.907 212.609,92.973 213.343,92.973 C213.465,92.973 213.71,92.973 213.71,92.565 C213.71,92.361 213.506,92.341 213.465,92.341 C213.261,92.324 212.649,92.284 212.649,91.712 C212.649,91.386 212.935,91.06 213.179,90.799 L215.259,88.601 L217.094,86.615 L219.133,91.468 C219.215,91.692 219.256,91.712 219.256,91.757 C219.256,91.916 218.848,92.259 218.073,92.34 C217.829,92.36 217.665,92.385 217.665,92.732 C217.665,92.973 217.869,92.973 217.951,92.973 C218.522,92.973 219.949,92.907 220.52,92.907 C221.05,92.907 222.274,92.973 222.763,92.973 C222.926,92.973 223.171,92.973 223.171,92.585 C223.171,92.341 222.967,92.341 222.804,92.341 C221.458,92.324 221.417,92.259 221.05,91.452 C220.275,89.559 218.889,86.391 218.44,85.175 C219.827,83.748 221.947,81.33 222.6,80.763 C223.171,80.274 223.946,79.788 225.169,79.727 C225.454,79.707 225.618,79.707 225.618,79.319 C225.618,79.3 225.618,79.095 225.373,79.095 C224.761,79.095 224.068,79.161 223.456,79.161 C222.681,79.161 221.907,79.095 221.213,79.095 C221.091,79.095 220.806,79.095 220.806,79.503 C220.806,79.642 220.928,79.707 221.05,79.727 C221.254,79.744 221.866,79.788 221.866,80.355 C221.866,80.645 221.662,80.906 221.499,81.089 z" fill="#000000" id="path7241"/>
    <path d="M200.914,221.096 L201.2,220.806 C201.812,220.194 202.464,219.509 203.851,219.407 C204.095,219.388 204.258,219.388 204.258,219.016 C204.258,218.857 204.177,218.775 204.014,218.775 C203.484,218.775 202.872,218.841 202.342,218.841 C201.689,218.841 200.955,218.775 200.303,218.775 C200.18,218.775 199.936,218.775 199.936,219.163 C199.936,219.387 200.14,219.407 200.221,219.407 C200.384,219.407 200.955,219.444 200.955,219.872 C200.955,220.223 200.507,220.745 200.425,220.847 L195.695,226.275 L193.452,220.239 C193.329,219.954 193.329,219.917 193.329,219.897 C193.329,219.407 194.349,219.407 194.512,219.407 C194.838,219.407 195.042,219.407 195.042,219 C195.042,218.775 194.797,218.775 194.716,218.775 C194.145,218.775 192.718,218.841 192.147,218.841 C191.657,218.841 190.393,218.775 189.863,218.775 C189.781,218.775 189.496,218.775 189.496,219.183 C189.496,219.407 189.7,219.407 189.985,219.407 C191.168,219.407 191.25,219.591 191.453,220.092 L193.941,226.784 C193.982,226.841 194.023,227.066 194.023,227.127 C194.023,227.184 193.207,230.463 193.125,230.826 C192.84,231.939 192.84,232.004 191.209,232.021 C190.801,232.021 190.638,232.021 190.638,232.428 C190.638,232.653 190.883,232.653 190.923,232.653 C191.494,232.653 192.921,232.587 193.492,232.587 C194.063,232.587 195.531,232.653 196.102,232.653 C196.225,232.653 196.469,232.653 196.469,232.245 C196.469,232.021 196.306,232.021 195.898,232.021 C195.898,232.021 195.491,232.021 195.164,231.984 C194.716,231.939 194.593,231.902 194.593,231.658 C194.593,231.511 194.797,230.806 194.879,230.377 L195.572,227.511 C195.695,227.127 195.695,227.066 195.898,226.878 z" fill="#000000" id="path7243"/>
    <path d="M227.688,136.107 L227.688,135.96 L227.688,135.815 L227.688,135.673 L227.647,135.535 L227.647,135.268 L227.606,135.013 L227.566,134.77 L227.484,134.539 L227.443,134.319 L227.362,134.11 L227.28,133.913 L227.198,133.726 L227.117,133.55 L226.994,133.385 L226.913,133.229 L226.79,133.084 L226.668,132.948 L226.546,132.823 L226.423,132.706 L226.301,132.598 L226.179,132.5 L226.016,132.41 L225.893,132.328 L225.73,132.255 L225.608,132.189 L225.445,132.132 L225.322,132.082 L225.159,132.039 L224.996,132.004 L224.874,131.975 L224.711,131.952 L224.588,131.935 L224.425,131.927 L224.303,131.924 L224.262,132.37 C226.26,132.37 226.26,135.033 226.26,136.613 C226.26,137.365 226.26,138.544 226.301,138.888 L226.301,138.888 C224.548,140.456 222.957,140.679 222.142,140.679 C220.918,140.679 220.347,139.761 220.347,138.461 C220.347,137.467 220.877,135.275 221.53,134.237 C222.468,132.752 223.569,132.37 224.262,132.37 L224.303,131.924 C221.53,131.924 218.838,134.829 218.838,137.691 C218.838,139.583 220.062,141.125 222.101,141.125 C223.406,141.125 224.874,140.66 226.424,139.417 C226.668,140.494 227.321,141.125 228.259,141.125 C229.319,141.125 229.971,140.01 229.971,139.685 C229.971,139.538 229.849,139.481 229.727,139.481 C229.564,139.481 229.523,139.538 229.441,139.685 C229.074,140.679 228.34,140.679 228.3,140.679 C227.688,140.679 227.688,139.092 227.688,138.608 C227.688,138.181 227.688,138.136 227.892,137.894 C229.808,135.499 230.216,133.141 230.216,133.121 C230.216,133.077 230.216,132.918 229.972,132.918 C229.768,132.918 229.768,132.975 229.686,133.345 C229.319,134.626 228.626,136.167 227.688,137.366 z" fill="#000000" id="path7245"/>
    <g id="g7354">
      <path d="M299.514,105.999 L299.718,105.954 L299.922,105.904 L300.126,105.848 L300.33,105.787 L300.493,105.72 L300.697,105.648 L300.901,105.57 L301.105,105.487 L301.268,105.399 L301.472,105.306 L301.676,105.207 L301.839,105.104 L302.043,104.995 L302.206,104.882 L302.369,104.764 L302.532,104.641 L302.695,104.513 L302.858,104.381 L302.981,104.244 L303.144,104.103 L303.266,103.957 L303.389,103.807 L303.47,103.652 L303.592,103.493 L303.674,103.33 L303.756,103.163 L303.837,102.991 L303.878,102.816 L303.919,102.636 L303.96,102.453 L304,102.266 L304,102.075 C304,100.329 302.165,99.029 299.514,99.029 L293.724,99.029 C293.316,99.029 293.112,99.029 293.112,99.437 C293.112,99.66 293.316,99.66 293.683,99.66 C293.724,99.66 294.131,99.66 294.458,99.698 C294.825,99.743 295.029,99.762 295.029,100.023 C295.029,100.106 294.988,100.17 294.947,100.412 L292.215,111.321 C292.011,112.117 291.97,112.276 290.38,112.276 C290.013,112.276 289.809,112.276 289.809,112.684 C289.809,112.907 290.053,112.907 290.094,112.907 C290.665,112.907 292.092,112.844 292.663,112.844 C293.234,112.844 294.662,112.907 295.233,112.907 C295.396,112.907 295.64,112.907 295.64,112.499 C295.64,112.276 295.477,112.276 295.069,112.276 C294.335,112.276 293.764,112.276 293.764,111.913 C293.764,111.792 293.805,111.69 293.805,111.569 L295.151,106.185 L297.598,106.185 L297.557,105.732 L295.273,105.732 L296.619,100.431 C296.741,99.947 296.782,99.743 297.19,99.679 C297.353,99.66 298.006,99.66 298.413,99.66 C299.841,99.66 302.124,99.66 302.124,101.673 C302.124,102.362 301.798,103.763 300.983,104.553 C300.452,105.082 299.392,105.732 297.557,105.732 L297.598,106.185 C299.433,106.185 299.8,107.319 299.8,108.033 C299.8,108.338 299.637,108.963 299.514,109.434 C299.351,110.001 299.188,110.753 299.188,111.161 C299.188,113.353 301.635,113.353 301.88,113.353 C303.633,113.353 304.327,111.301 304.327,111.015 C304.327,110.772 304.082,110.772 304.082,110.772 C303.878,110.772 303.837,110.919 303.796,111.059 C303.307,112.563 302.451,112.907 301.961,112.907 C301.309,112.907 301.146,112.461 301.146,111.665 C301.146,111.04 301.268,110.001 301.35,109.351 C301.39,109.065 301.431,108.682 301.431,108.396 C301.431,106.835 300.085,106.204 299.514,106 z" fill="#000000" id="path7247"/>
      <path d="M319.13,107.912 L319.374,107.542 C319.66,107.16 320.027,106.803 320.72,106.746 C320.883,106.733 321.046,106.72 321.046,106.434 C321.046,106.332 320.965,106.236 320.842,106.236 C320.516,106.236 320.108,106.294 319.741,106.294 C319.252,106.294 318.64,106.236 318.192,106.236 C318.11,106.236 317.865,106.236 317.865,106.548 C317.865,106.733 318.069,106.746 318.151,106.746 C318.477,106.759 318.926,106.848 318.926,107.243 C318.926,107.402 318.763,107.657 318.722,107.753 L314.685,114.335 L313.91,107.16 C313.91,106.759 314.725,106.746 314.929,106.746 C315.092,106.746 315.296,106.746 315.296,106.434 C315.296,106.421 315.296,106.236 315.052,106.236 C314.807,106.236 314.44,106.262 314.195,106.281 C313.91,106.294 313.543,106.294 313.217,106.294 C312.931,106.294 312.075,106.236 311.749,106.236 C311.667,106.236 311.463,106.236 311.463,106.548 C311.463,106.746 311.626,106.746 311.83,106.746 C312.442,106.746 312.523,106.848 312.564,106.988 C312.564,107.071 312.605,107.472 312.646,107.912 L308.731,114.335 L307.997,107.37 C307.997,107.313 307.956,107.173 307.956,107.16 C307.956,106.746 308.853,106.746 308.975,106.746 C309.139,106.746 309.342,106.746 309.342,106.434 C309.342,106.377 309.302,106.237 309.098,106.237 C308.69,106.237 307.711,106.294 307.303,106.294 C306.814,106.294 306.202,106.237 305.795,106.237 C305.631,106.237 305.509,106.294 305.509,106.536 C305.509,106.746 305.672,106.746 305.917,106.746 C306.569,106.746 306.569,106.835 306.61,107.186 L307.548,115.839 C307.589,116.125 307.63,116.228 307.874,116.228 C308.119,116.228 308.201,116.1 308.282,115.941 L312.727,108.638 L313.502,115.858 C313.543,116.151 313.624,116.227 313.828,116.227 C314.073,116.227 314.155,116.1 314.236,115.928 z" fill="#000000" id="path7249"/>
      <path d="M329.61,117.78 L329.61,117.771 L329.61,117.761 L329.61,117.755 L329.61,117.748 L329.61,117.742 L329.61,117.735 L329.61,117.729 L329.61,117.723 L329.61,117.716 L329.61,117.707 L329.61,117.697 L329.569,117.687 L329.569,117.678 L329.569,117.668 L329.569,117.655 L329.569,117.642 L329.529,117.63 L329.529,117.614 L329.529,117.607 L329.529,117.601 L329.529,117.591 L329.488,117.582 L329.488,117.572 L329.488,117.562 L329.488,117.553 L329.488,117.543 L329.447,117.534 L329.447,117.524 L329.447,117.514 L329.447,117.505 L329.406,117.492 L329.406,117.479 L329.406,117.466 L329.406,117.453 L329.366,117.441 L329.366,117.428 L329.366,117.415 L329.325,117.402 L329.325,117.389 L329.325,117.373 L329.284,117.357 L329.284,117.341 C326.756,114.779 326.103,110.944 326.103,107.834 C326.103,104.298 326.878,100.761 329.366,98.225 C329.61,97.977 329.61,97.939 329.61,97.875 C329.61,97.735 329.529,97.677 329.406,97.677 C329.202,97.677 327.408,99.054 326.185,101.634 C325.165,103.871 324.92,106.126 324.92,107.834 C324.92,109.421 325.124,111.874 326.266,114.174 C327.449,116.672 329.202,117.991 329.406,117.991 C329.529,117.991 329.61,117.934 329.61,117.787 z" fill="#000000" id="path7251"/>
      <path d="M340.621,104.552 L338.908,100.513 C338.867,100.347 338.827,100.27 338.827,100.251 C338.827,100.124 339.153,99.741 340.009,99.659 C340.213,99.639 340.417,99.62 340.417,99.27 C340.417,99.028 340.172,99.028 340.132,99.028 C339.275,99.028 338.419,99.092 337.562,99.092 C337.073,99.092 335.809,99.028 335.279,99.028 C335.156,99.028 334.912,99.028 334.912,99.436 C334.912,99.659 335.116,99.659 335.401,99.659 C336.624,99.659 336.706,99.862 336.91,100.309 L339.316,105.979 L335.034,110.593 L334.749,110.816 C333.77,111.893 332.791,112.218 331.772,112.275 C331.527,112.294 331.323,112.294 331.323,112.683 C331.323,112.702 331.323,112.906 331.608,112.906 C332.179,112.906 332.873,112.842 333.484,112.842 C334.259,112.842 335.034,112.906 335.768,112.906 C335.89,112.906 336.135,112.906 336.135,112.498 C336.135,112.294 335.931,112.275 335.89,112.275 C335.727,112.256 335.075,112.218 335.075,111.644 C335.075,111.319 335.401,110.994 335.646,110.733 L337.685,108.535 L339.52,106.547 L341.6,111.402 C341.681,111.625 341.681,111.644 341.681,111.689 C341.681,111.848 341.314,112.192 340.499,112.275 C340.295,112.294 340.091,112.32 340.091,112.664 C340.091,112.906 340.335,112.906 340.417,112.906 C340.988,112.906 342.415,112.842 342.945,112.842 C343.475,112.842 344.699,112.906 345.229,112.906 C345.351,112.906 345.596,112.906 345.596,112.517 C345.596,112.275 345.392,112.275 345.229,112.275 C343.883,112.256 343.842,112.192 343.475,111.383 C342.701,109.491 341.355,106.324 340.866,105.107 C342.252,103.679 344.373,101.264 345.025,100.697 C345.637,100.207 346.412,99.722 347.635,99.659 C347.88,99.64 348.084,99.64 348.084,99.251 C348.084,99.232 348.084,99.028 347.798,99.028 C347.186,99.028 346.534,99.092 345.882,99.092 C345.147,99.092 344.373,99.028 343.639,99.028 C343.516,99.028 343.231,99.028 343.231,99.436 C343.231,99.576 343.353,99.64 343.475,99.659 C343.679,99.678 344.291,99.722 344.291,100.29 C344.291,100.576 344.087,100.838 343.924,101.022 z" fill="#000000" id="path7253"/>
      <path d="M352.202,112.887 L352.202,112.762 L352.202,112.641 L352.202,112.523 L352.202,112.409 L352.202,112.298 L352.162,112.191 L352.162,112.086 L352.121,111.986 L352.121,111.889 L352.08,111.796 L352.039,111.706 L351.999,111.62 L351.999,111.538 L351.958,111.46 L351.917,111.386 L351.876,111.315 L351.835,111.249 L351.795,111.186 L351.713,111.128 L351.672,111.073 L351.631,111.023 L351.591,110.977 L351.509,110.935 L351.468,110.897 L351.387,110.863 L351.346,110.834 L351.264,110.809 L351.183,110.789 L351.142,110.773 L351.06,110.761 L350.979,110.754 L350.938,110.752 C350.245,110.752 349.837,111.262 349.837,111.829 C349.837,112.377 350.245,112.905 350.938,112.905 C351.142,112.905 351.427,112.823 351.631,112.645 C351.672,112.6 351.713,112.58 351.754,112.58 C351.754,112.58 351.754,112.6 351.754,112.886 C351.754,114.39 351.06,115.607 350.408,116.276 C350.163,116.499 350.163,116.544 350.163,116.601 C350.163,116.748 350.286,116.824 350.367,116.824 C350.612,116.824 352.202,115.263 352.202,112.886 z" fill="#000000" id="path7255"/>
      <path d="M366.802,108.108 L366.802,107.96 L366.802,107.816 L366.802,107.674 L366.761,107.536 L366.761,107.269 L366.72,107.014 L366.679,106.771 L366.598,106.539 L366.557,106.319 L366.475,106.111 L366.394,105.913 L366.312,105.727 L366.231,105.551 L366.108,105.385 L366.027,105.23 L365.905,105.085 L365.782,104.949 L365.66,104.823 L365.538,104.707 L365.415,104.599 L365.252,104.501 L365.13,104.411 L365.007,104.329 L364.844,104.256 L364.722,104.19 L364.559,104.133 L364.396,104.083 L364.273,104.04 L364.11,104.005 L363.988,103.976 L363.825,103.954 L363.703,103.938 L363.539,103.928 L363.376,103.925 L363.376,104.371 C365.374,104.371 365.374,107.035 365.374,108.615 C365.374,109.367 365.374,110.546 365.415,110.89 L365.415,110.89 C363.662,112.457 362.071,112.68 361.256,112.68 C360.032,112.68 359.421,111.763 359.421,110.463 C359.421,109.469 359.951,107.277 360.603,106.238 C361.582,104.754 362.683,104.371 363.376,104.371 L363.376,103.925 C360.603,103.925 357.953,106.831 357.953,109.692 C357.953,111.584 359.135,113.126 361.215,113.126 C362.52,113.126 363.988,112.661 365.497,111.419 C365.782,112.495 366.435,113.126 367.373,113.126 C368.433,113.126 369.045,112.011 369.045,111.686 C369.045,111.54 368.963,111.482 368.841,111.482 C368.678,111.482 368.637,111.54 368.555,111.686 C368.188,112.68 367.454,112.68 367.414,112.68 C366.802,112.68 366.802,111.094 366.802,110.609 C366.802,110.183 366.802,110.138 367.006,109.896 C368.922,107.5 369.33,105.142 369.33,105.123 C369.33,105.079 369.289,104.919 369.086,104.919 C368.882,104.919 368.882,104.977 368.8,105.346 C368.433,106.627 367.74,108.169 366.802,109.367 z" fill="#000000" id="path7257"/>
      <path d="M376.1,107.828 L376.1,107.676 L376.1,107.52 L376.059,107.359 L376.059,107.194 L376.059,106.85 L376.018,106.49 L375.977,106.116 L375.937,105.729 L375.896,105.331 L375.814,104.923 L375.733,104.507 L375.651,104.084 L375.569,103.655 L375.406,103.223 L375.284,102.789 L375.121,102.354 L375.039,102.137 L374.958,101.92 L374.835,101.704 L374.754,101.488 C373.53,98.99 371.777,97.671 371.573,97.671 C371.451,97.671 371.369,97.748 371.369,97.869 C371.369,97.933 371.369,97.971 371.736,98.341 C373.734,100.347 374.917,103.578 374.917,107.828 C374.917,111.301 374.142,114.875 371.655,117.437 C371.369,117.679 371.369,117.724 371.369,117.781 C371.369,117.902 371.451,117.985 371.573,117.985 C371.777,117.985 373.612,116.602 374.795,114.022 C375.855,111.791 376.1,109.536 376.1,107.828 z" fill="#000000" id="path7259"/>
    </g>
    <g id="g7365">
      <path d="M349.786,190.952 L353.17,190.952 C355.821,190.952 356.841,189.41 356.841,189.143 C356.841,189.041 356.759,189.002 356.677,189.002 C356.433,189.002 355.943,189.206 355.413,189.57 C355.25,189.691 355.209,189.691 354.802,189.691 L345.952,189.691 C343.424,189.691 340.61,191.864 340.61,193.533 C340.61,193.654 340.61,193.775 340.773,193.775 C341.262,193.775 342.527,193.106 342.567,192.616 C342.608,192.272 342.608,191.889 343.016,191.36 C343.22,191.112 343.383,190.952 344.321,190.952 L348.317,190.952 C347.991,191.175 347.91,191.481 347.869,191.685 L345.544,200.886 C345.3,201.88 344.892,203.161 344.321,204.479 C344.199,204.727 344.199,204.768 344.199,204.813 C344.199,204.931 344.239,204.952 344.362,204.952 C344.77,204.952 345.748,204.405 346.075,203.977 C346.197,203.773 347.094,201.702 347.502,200.013 z" fill="#000000" id="path7261"/>
      <path d="M365.69,198.624 L365.935,198.255 C366.22,197.872 366.587,197.515 367.28,197.458 C367.443,197.445 367.607,197.433 367.607,197.146 C367.607,197.044 367.525,196.948 367.403,196.948 C367.076,196.948 366.669,197.005 366.342,197.005 C365.812,197.005 365.2,196.948 364.752,196.948 C364.67,196.948 364.466,196.948 364.466,197.261 C364.466,197.445 364.67,197.458 364.711,197.458 C365.037,197.471 365.486,197.56 365.486,197.955 C365.486,198.115 365.323,198.369 365.282,198.465 L361.286,205.045 L360.47,197.872 C360.47,197.471 361.326,197.458 361.489,197.458 C361.653,197.458 361.856,197.458 361.856,197.146 C361.856,197.133 361.856,196.948 361.612,196.948 C361.367,196.948 361,196.974 360.755,196.993 C360.47,197.006 360.103,197.006 359.817,197.006 C359.491,197.006 358.635,196.949 358.309,196.949 C358.227,196.949 358.023,196.949 358.023,197.261 C358.023,197.459 358.227,197.459 358.39,197.459 C359.002,197.459 359.083,197.56 359.124,197.701 C359.124,197.783 359.165,198.185 359.247,198.625 L355.332,205.046 L354.557,198.083 C354.557,198.026 354.557,197.885 354.557,197.872 C354.557,197.459 355.413,197.459 355.536,197.459 C355.699,197.459 355.903,197.459 355.903,197.146 C355.903,197.089 355.862,196.949 355.699,196.949 C355.291,196.949 354.271,197.006 353.864,197.006 C353.374,197.006 352.763,196.949 352.355,196.949 C352.232,196.949 352.069,197.006 352.069,197.248 C352.069,197.459 352.232,197.459 352.477,197.459 C353.13,197.459 353.13,197.547 353.17,197.898 L354.149,206.551 C354.149,206.836 354.19,206.938 354.435,206.938 C354.679,206.938 354.761,206.812 354.842,206.652 L359.287,199.351 L360.062,206.571 C360.103,206.864 360.185,206.938 360.388,206.938 C360.633,206.938 360.715,206.812 360.796,206.64 z" fill="#000000" id="path7263"/>
      <path d="M376.17,208.442 L376.17,208.433 L376.17,208.42 L376.17,208.417 L376.17,208.407 L376.17,208.404 L376.17,208.394 L376.17,208.385 L376.17,208.382 L376.17,208.372 L376.17,208.362 L376.17,208.349 L376.17,208.34 L376.17,208.33 L376.13,208.317 L376.13,208.305 L376.13,208.292 L376.13,208.276 L376.089,208.263 L376.089,208.253 L376.089,208.244 L376.089,208.234 L376.089,208.224 L376.089,208.215 L376.048,208.202 L376.048,208.192 L376.048,208.183 L376.048,208.17 L376.007,208.157 L376.007,208.148 L376.007,208.135 L376.007,208.122 L375.966,208.109 L375.966,208.096 L375.966,208.083 L375.926,208.071 L375.926,208.058 L375.926,208.042 L375.885,208.029 L375.885,208.013 L375.885,207.997 L375.844,207.984 L375.844,207.968 C373.316,205.407 372.663,201.57 372.663,198.461 C372.663,194.924 373.438,191.388 375.926,188.852 C376.17,188.603 376.17,188.565 376.17,188.501 C376.17,188.361 376.13,188.304 376.007,188.304 C375.803,188.304 373.968,189.68 372.745,192.261 C371.725,194.497 371.481,196.753 371.481,198.461 C371.481,200.047 371.685,202.5 372.826,204.799 C374.05,207.299 375.803,208.616 376.007,208.616 C376.13,208.616 376.17,208.559 376.17,208.413 z" fill="#000000" id="path7265"/>
      <path d="M389.465,192.01 L389.75,191.723 C390.362,191.112 391.055,190.424 392.442,190.322 C392.646,190.302 392.849,190.302 392.849,189.933 C392.849,189.774 392.727,189.691 392.564,189.691 C392.034,189.691 391.463,189.754 390.892,189.754 C390.24,189.754 389.505,189.691 388.853,189.691 C388.731,189.691 388.486,189.691 388.486,190.079 C388.486,190.302 388.69,190.322 388.771,190.322 C388.935,190.322 389.505,190.359 389.505,190.786 C389.505,191.137 389.057,191.66 388.975,191.761 L384.245,197.19 L382.002,191.156 C381.88,190.869 381.88,190.831 381.88,190.812 C381.88,190.322 382.899,190.322 383.103,190.322 C383.388,190.322 383.592,190.322 383.592,189.914 C383.592,189.691 383.348,189.691 383.266,189.691 C382.695,189.691 381.309,189.754 380.697,189.754 C380.208,189.754 378.943,189.691 378.454,189.691 C378.332,189.691 378.046,189.691 378.046,190.098 C378.046,190.322 378.25,190.322 378.536,190.322 C379.718,190.322 379.841,190.506 380.004,191.009 L382.491,197.7 C382.532,197.757 382.573,197.981 382.573,198.044 C382.573,198.101 381.757,201.377 381.676,201.74 C381.431,202.855 381.39,202.921 379.759,202.937 C379.392,202.937 379.229,202.937 379.229,203.345 C379.229,203.569 379.474,203.569 379.514,203.569 C380.085,203.569 381.472,203.504 382.043,203.504 C382.614,203.504 384.082,203.569 384.653,203.569 C384.816,203.569 385.02,203.569 385.02,203.161 C385.02,202.937 384.857,202.937 384.49,202.937 C384.449,202.937 384.041,202.937 383.715,202.9 C383.266,202.855 383.144,202.819 383.144,202.574 C383.144,202.428 383.348,201.721 383.429,201.294 L384.163,198.427 C384.245,198.044 384.286,197.981 384.449,197.796 z" fill="#000000" id="path7267"/>
      <path d="M394.399,203.549 L394.399,203.426 L394.358,203.304 L394.358,203.186 L394.358,203.072 L394.358,202.961 L394.318,202.851 L394.318,202.749 L394.277,202.649 L394.277,202.552 L394.236,202.459 L394.195,202.369 L394.195,202.283 L394.154,202.201 L394.114,202.123 L394.073,202.048 L394.032,201.978 L393.991,201.911 L393.951,201.848 L393.91,201.79 L393.828,201.736 L393.787,201.685 L393.747,201.639 L393.665,201.597 L393.624,201.559 L393.584,201.526 L393.502,201.497 L393.42,201.471 L393.38,201.452 L393.298,201.436 L393.217,201.423 L393.176,201.417 L393.094,201.415 C392.401,201.415 391.993,201.924 391.993,202.491 C391.993,203.039 392.401,203.569 393.094,203.569 C393.339,203.569 393.584,203.487 393.787,203.308 C393.869,203.263 393.869,203.242 393.91,203.242 C393.91,203.242 393.951,203.262 393.951,203.548 C393.951,205.053 393.217,206.268 392.564,206.937 C392.319,207.161 392.319,207.206 392.319,207.263 C392.319,207.41 392.442,207.488 392.523,207.488 C392.768,207.488 394.399,205.926 394.399,203.548 z" fill="#000000" id="path7269"/>
      <path d="M409.121,195.215 L407.408,191.175 C407.367,191.01 407.326,190.933 407.326,190.914 C407.326,190.787 407.653,190.405 408.509,190.322 C408.713,190.303 408.917,190.283 408.917,189.933 C408.917,189.691 408.672,189.691 408.631,189.691 C407.775,189.691 406.919,189.754 406.062,189.754 C405.532,189.754 404.268,189.691 403.779,189.691 C403.656,189.691 403.412,189.691 403.412,190.099 C403.412,190.322 403.615,190.322 403.86,190.322 C405.084,190.322 405.206,190.526 405.41,190.971 L407.816,196.643 L403.493,201.256 L403.248,201.479 C402.27,202.556 401.291,202.88 400.271,202.937 C399.986,202.956 399.823,202.956 399.823,203.345 C399.823,203.364 399.823,203.569 400.068,203.569 C400.679,203.569 401.373,203.504 401.984,203.504 C402.718,203.504 403.534,203.569 404.268,203.569 C404.39,203.569 404.635,203.569 404.635,203.161 C404.635,202.958 404.431,202.937 404.39,202.937 C404.186,202.921 403.575,202.88 403.575,202.307 C403.575,201.982 403.86,201.657 404.105,201.396 L406.185,199.198 L408.02,197.209 L410.059,202.065 C410.14,202.288 410.181,202.307 410.181,202.352 C410.181,202.511 409.773,202.856 408.998,202.937 C408.754,202.956 408.591,202.982 408.591,203.329 C408.591,203.569 408.795,203.569 408.876,203.569 C409.447,203.569 410.874,203.504 411.445,203.504 C411.975,203.504 413.199,203.569 413.688,203.569 C413.851,203.569 414.096,203.569 414.096,203.182 C414.096,202.937 413.892,202.937 413.729,202.937 C412.383,202.921 412.342,202.856 411.975,202.046 C411.201,200.153 409.814,196.986 409.365,195.769 C410.752,194.342 412.873,191.927 413.525,191.36 C414.096,190.869 414.871,190.385 416.094,190.322 C416.38,190.302 416.543,190.302 416.543,189.914 C416.543,189.895 416.543,189.691 416.298,189.691 C415.686,189.691 414.993,189.754 414.381,189.754 C413.647,189.754 412.873,189.691 412.138,189.691 C412.016,189.691 411.731,189.691 411.731,190.099 C411.731,190.238 411.853,190.302 411.975,190.322 C412.179,190.341 412.791,190.385 412.791,190.952 C412.791,191.239 412.587,191.5 412.424,191.685 z" fill="#000000" id="path7271"/>
      <path d="M420.702,203.549 L420.702,203.426 L420.702,203.304 L420.702,203.186 L420.702,203.072 L420.662,202.961 L420.662,202.851 L420.621,202.749 L420.621,202.649 L420.58,202.552 L420.58,202.459 L420.539,202.369 L420.498,202.283 L420.458,202.201 L420.458,202.123 L420.417,202.048 L420.376,201.978 L420.294,201.911 L420.254,201.848 L420.213,201.79 L420.172,201.736 L420.131,201.685 L420.05,201.639 L420.009,201.597 L419.968,201.559 L419.887,201.526 L419.805,201.497 L419.764,201.471 L419.683,201.452 L419.642,201.436 L419.56,201.423 L419.479,201.417 L419.397,201.415 C418.745,201.415 418.337,201.924 418.337,202.491 C418.337,203.039 418.745,203.569 419.397,203.569 C419.642,203.569 419.927,203.487 420.131,203.308 C420.172,203.263 420.213,203.242 420.213,203.242 C420.254,203.242 420.254,203.262 420.254,203.548 C420.254,205.053 419.56,206.268 418.867,206.937 C418.663,207.161 418.663,207.206 418.663,207.263 C418.663,207.41 418.745,207.488 418.867,207.488 C419.071,207.488 420.702,205.926 420.702,203.548 z" fill="#000000" id="path7273"/>
      <path d="M435.302,198.771 L435.261,198.623 L435.261,198.478 L435.261,198.337 L435.261,198.199 L435.22,197.931 L435.179,197.676 L435.139,197.433 L435.098,197.202 L435.016,196.982 L434.975,196.773 L434.894,196.576 L434.812,196.389 L434.69,196.214 L434.608,196.048 L434.486,195.892 L434.405,195.747 L434.282,195.612 L434.16,195.486 L434.038,195.369 L433.874,195.262 L433.752,195.163 L433.63,195.073 L433.467,194.992 L433.344,194.918 L433.181,194.853 L433.059,194.795 L432.896,194.746 L432.773,194.703 L432.61,194.668 L432.447,194.639 L432.325,194.617 L432.162,194.601 L432.039,194.591 L431.876,194.588 L431.876,195.034 C433.874,195.034 433.874,197.697 433.874,199.277 C433.874,200.029 433.874,201.208 433.915,201.552 L433.915,201.552 C432.121,203.122 430.571,203.342 429.756,203.342 C428.532,203.342 427.921,202.425 427.921,201.126 C427.921,200.131 428.451,197.939 429.103,196.901 C430.041,195.416 431.142,195.034 431.876,195.034 L431.876,194.588 C429.103,194.588 426.412,197.493 426.412,200.354 C426.412,202.247 427.635,203.791 429.715,203.791 C430.979,203.791 432.447,203.326 433.997,202.081 C434.282,203.158 434.935,203.791 435.832,203.791 C436.933,203.791 437.545,202.674 437.545,202.349 C437.545,202.202 437.422,202.145 437.3,202.145 C437.178,202.145 437.096,202.202 437.055,202.349 C436.688,203.342 435.954,203.342 435.914,203.342 C435.302,203.342 435.302,201.756 435.302,201.272 C435.302,200.845 435.302,200.801 435.506,200.558 C437.382,198.163 437.83,195.805 437.83,195.786 C437.83,195.741 437.789,195.582 437.586,195.582 C437.382,195.582 437.382,195.639 437.259,196.009 C436.892,197.289 436.24,198.832 435.302,200.03 z" fill="#000000" id="path7275"/>
      <path d="M444.559,198.49 L444.559,198.339 L444.559,198.183 L444.559,198.022 L444.559,197.856 L444.559,197.512 L444.518,197.153 L444.477,196.779 L444.436,196.392 L444.396,195.993 L444.314,195.586 L444.233,195.169 L444.151,194.746 L444.029,194.318 L443.906,193.885 L443.784,193.451 L443.621,193.016 L443.539,192.799 L443.417,192.582 L443.335,192.365 L443.254,192.15 C442.03,189.652 440.277,188.333 440.073,188.333 C439.951,188.333 439.869,188.41 439.869,188.531 C439.869,188.595 439.869,188.633 440.236,189.002 C442.234,191.009 443.417,194.24 443.417,198.49 C443.417,201.963 442.642,205.539 440.114,208.1 C439.869,208.34 439.869,208.385 439.869,208.442 C439.869,208.565 439.951,208.646 440.073,208.646 C440.277,208.646 442.112,207.264 443.295,204.682 C444.314,202.454 444.559,200.198 444.559,198.49 z" fill="#000000" id="path7277"/>
    </g>
  </g>
</svg>
