<?xml version="1.0" encoding="UTF-8" standalone="no"?>
<!-- Created with Inkscape (http://www.inkscape.org/) -->

<svg
   xmlns:dc="http://purl.org/dc/elements/1.1/"
   xmlns:cc="http://creativecommons.org/ns#"
   xmlns:rdf="http://www.w3.org/1999/02/22-rdf-syntax-ns#"
   xmlns:svg="http://www.w3.org/2000/svg"
   xmlns="http://www.w3.org/2000/svg"
   xmlns:sodipodi="http://sodipodi.sourceforge.net/DTD/sodipodi-0.dtd"
   xmlns:inkscape="http://www.inkscape.org/namespaces/inkscape"
   width="155.77213mm"
   height="91.492111mm"
   viewBox="0 0 155.77213 91.492111"
   version="1.1"
   id="svg5129"
   inkscape:version="0.92.5 (2060ec1f9f, 2020-04-08)"
   sodipodi:docname="manifold_illustration.svg">
  <defs
     id="defs5123" />
  <sodipodi:namedview
     id="base"
     pagecolor="#ffffff"
     bordercolor="#666666"
     borderopacity="1.0"
     inkscape:pageopacity="0.0"
     inkscape:pageshadow="2"
     inkscape:zoom="2.8"
     inkscape:cx="246.67197"
     inkscape:cy="126.29066"
     inkscape:document-units="mm"
     inkscape:current-layer="layer1"
     showgrid="false"
     inkscape:window-width="3840"
     inkscape:window-height="2032"
     inkscape:window-x="0"
     inkscape:window-y="54"
     inkscape:window-maximized="1"
     inkscape:snap-global="false"
     inkscape:snap-bbox="false"
     inkscape:snap-object-midpoints="true"
     fit-margin-top="0"
     fit-margin-left="0"
     fit-margin-right="0"
     fit-margin-bottom="0" />
  <metadata
     id="metadata5126">
    <rdf:RDF>
      <cc:Work
         rdf:about="">
        <dc:format>image/svg+xml</dc:format>
        <dc:type
           rdf:resource="http://purl.org/dc/dcmitype/StillImage" />
        <dc:title></dc:title>
      </cc:Work>
    </rdf:RDF>
  </metadata>
  <g
     inkscape:label="Layer 1"
     inkscape:groupmode="layer"
     id="layer1"
     transform="translate(-24.321527,-49.935739)">
    <g
       id="g5762"
       style="stroke:#dac5c5;stroke-opacity:1">
      <path
         sodipodi:nodetypes="cc"
         inkscape:connector-curvature="0"
         id="path5674"
         d="M 24.321527,93.206984 C 48.890349,94.615363 81.240668,105.58673 121.474,141.3155"
         style="fill:none;stroke:#dac5c5;stroke-width:0.30000001;stroke-linecap:butt;stroke-linejoin:miter;stroke-miterlimit:4;stroke-dasharray:1.20000006, 0.60000003;stroke-dashoffset:3.00000024;stroke-opacity:1" />
      <path
         style="fill:none;stroke:#dac5c5;stroke-width:0.30000001;stroke-linecap:butt;stroke-linejoin:miter;stroke-miterlimit:4;stroke-dasharray:1.20000006, 0.60000003;stroke-dashoffset:3.00000024;stroke-opacity:1"
         d="m 34.076865,83.718916 c 27.654421,1.387268 61.826946,14.727175 97.152475,48.108514"
         id="path5676"
         inkscape:connector-curvature="0"
         sodipodi:nodetypes="cc" />
      <path
         sodipodi:nodetypes="cc"
         inkscape:connector-curvature="0"
         id="path5678"
         d="m 46.103994,75.9681 c 27.689183,2.350128 62.704086,16.067316 97.152476,48.10851"
         style="fill:none;stroke:#dac5c5;stroke-width:0.30000001;stroke-linecap:butt;stroke-linejoin:miter;stroke-miterlimit:4;stroke-dasharray:1.20000006, 0.60000003;stroke-dashoffset:3.00000024;stroke-opacity:1" />
      <path
         style="fill:none;stroke:#dac5c5;stroke-width:0.30000001;stroke-linecap:butt;stroke-linejoin:miter;stroke-miterlimit:4;stroke-dasharray:1.20000006, 0.60000003;stroke-dashoffset:3.00000024;stroke-opacity:1"
         d="m 56.260236,67.816379 c 27.672003,2.592877 62.732344,16.169202 97.152474,48.108511"
         id="path5680"
         inkscape:connector-curvature="0"
         sodipodi:nodetypes="cc" />
      <path
         sodipodi:nodetypes="cc"
         inkscape:connector-curvature="0"
         id="path5682"
         d="m 65.08013,60.199197 c 29.616485,2.893445 63.54616,16.681744 97.15247,48.108513"
         style="fill:none;stroke:#dac5c5;stroke-width:0.30000001;stroke-linecap:butt;stroke-linejoin:miter;stroke-miterlimit:4;stroke-dasharray:1.20000006, 0.60000003;stroke-dashoffset:3.00000024;stroke-opacity:1" />
      <path
         style="fill:none;stroke:#dac5c5;stroke-width:0.30000001;stroke-linecap:butt;stroke-linejoin:miter;stroke-miterlimit:4;stroke-dasharray:1.20000006, 0.60000003;stroke-dashoffset:3.00000024;stroke-opacity:1"
         d="m 73.900024,52.181111 c 29.023546,2.280833 63.517066,16.683631 97.152466,48.108509"
         id="path5684"
         inkscape:connector-curvature="0"
         sodipodi:nodetypes="cc" />
    </g>
    <g
       id="g5754"
       style="stroke:#dac5c5;stroke-width:0.5;stroke-miterlimit:4;stroke-dasharray:2.00000006, 1.00000003;stroke-dashoffset:0;stroke-opacity:1">
      <path
         sodipodi:nodetypes="cc"
         inkscape:connector-curvature="0"
         id="path5686"
         d="m 165.57347,86.257976 c -17.176,4.766274 -44.55551,30.173824 -61.8729,53.053004"
         style="fill:none;stroke:#dac5c5;stroke-width:0.5;stroke-linecap:butt;stroke-linejoin:miter;stroke-miterlimit:4;stroke-dasharray:2.00000006, 1.00000003;stroke-dashoffset:0;stroke-opacity:1" />
      <path
         style="fill:none;stroke:#dac5c5;stroke-width:0.5;stroke-linecap:butt;stroke-linejoin:miter;stroke-miterlimit:4;stroke-dasharray:2.00000006, 1.00000003;stroke-dashoffset:0;stroke-opacity:1"
         d="m 153.54634,77.304447 c -17.176,4.766274 -44.55551,30.173823 -61.872899,53.053003"
         id="path5688"
         inkscape:connector-curvature="0"
         sodipodi:nodetypes="cc" />
      <path
         sodipodi:nodetypes="cc"
         inkscape:connector-curvature="0"
         id="path5690"
         d="m 140.98467,69.286361 c -17.176,4.766274 -44.555508,30.173823 -61.872897,53.052999"
         style="fill:none;stroke:#dac5c5;stroke-width:0.5;stroke-linecap:butt;stroke-linejoin:miter;stroke-miterlimit:4;stroke-dasharray:2.00000006, 1.00000003;stroke-dashoffset:0;stroke-opacity:1" />
      <path
         style="fill:none;stroke:#dac5c5;stroke-width:0.5;stroke-linecap:butt;stroke-linejoin:miter;stroke-miterlimit:4;stroke-dasharray:2.00000006, 1.00000003;stroke-dashoffset:0;stroke-opacity:1"
         d="m 127.88846,62.871892 c -17.176,4.766274 -44.555505,30.173823 -61.872894,53.052998"
         id="path5692"
         inkscape:connector-curvature="0"
         sodipodi:nodetypes="cc" />
      <path
         sodipodi:nodetypes="cc"
         inkscape:connector-curvature="0"
         id="path5694"
         d="M 116.1286,56.991962 C 98.952601,61.758236 71.573096,87.165785 54.255707,110.04496"
         style="fill:none;stroke:#dac5c5;stroke-width:0.5;stroke-linecap:butt;stroke-linejoin:miter;stroke-miterlimit:4;stroke-dasharray:2.00000006, 1.00000003;stroke-dashoffset:0;stroke-opacity:1" />
      <path
         style="fill:none;stroke:#dac5c5;stroke-width:0.5;stroke-linecap:butt;stroke-linejoin:miter;stroke-miterlimit:4;stroke-dasharray:2.00000006, 1.00000003;stroke-dashoffset:0;stroke-opacity:1"
         d="M 103.96784,53.250189 C 86.791837,58.016463 59.412332,83.424012 42.094943,106.30319"
         id="path5696"
         inkscape:connector-curvature="0"
         sodipodi:nodetypes="cc" />
      <path
         sodipodi:nodetypes="cc"
         inkscape:connector-curvature="0"
         id="path5698"
         d="M 93.677963,50.176589 C 76.50196,54.942863 49.122455,80.350412 31.805066,103.22959"
         style="fill:none;stroke:#dac5c5;stroke-width:0.5;stroke-linecap:butt;stroke-linejoin:miter;stroke-miterlimit:4;stroke-dasharray:2.00000006, 1.00000003;stroke-dashoffset:0;stroke-opacity:1" />
    </g>
    <circle
       style="fill:#000000;fill-opacity:1;stroke:none;stroke-width:1.02631581;stroke-linecap:round;stroke-linejoin:round;stroke-miterlimit:4;stroke-dasharray:4.10526337, 2.05263168;stroke-dashoffset:0;stroke-opacity:1"
       id="path5796"
       cx="63.008797"
       cy="95.011063"
       r="2.6058779" />
    <circle
       r="2.3720169"
       cy="86.892746"
       cx="124.64783"
       id="circle5798"
       style="fill:#000000;fill-opacity:1;stroke:none;stroke-width:0.93421054;stroke-linecap:round;stroke-linejoin:round;stroke-miterlimit:4;stroke-dasharray:3.73684228, 1.86842113;stroke-dashoffset:0;stroke-opacity:1" />
    <path
       style="fill:none;stroke:#000000;stroke-width:1;stroke-linecap:butt;stroke-linejoin:miter;stroke-miterlimit:4;stroke-dasharray:none;stroke-opacity:1"
       d="m 62.34062,95.478779 c 17.814892,-10.68185 64.89312,-9.719239 87.93167,-6.147201"
       id="path5800"
       inkscape:connector-curvature="0"
       sodipodi:nodetypes="cc" />
    <g
       id="g15626"
       transform="matrix(2.1314977,0.4545469,-0.4545469,2.1314977,-1119.9922,4324.3813)"
       style="stroke-linecap:butt;stroke-linejoin:round"
       inkscape:transform-center-x="-18.364637"
       inkscape:transform-center-y="-9.5650289">
      <path
         style="fill:none;stroke:#000000;stroke-width:0.31809935px;stroke-linecap:butt;stroke-linejoin:miter;stroke-opacity:1"
         d="m 126.13261,-2011.1227 14.394,-11.2925"
         id="path15586"
         inkscape:connector-curvature="0"
         sodipodi:nodetypes="cc" />
      <g
         id="g15620"
         style="stroke-linecap:butt;stroke-linejoin:round">
        <path
           sodipodi:nodetypes="cc"
           inkscape:connector-curvature="0"
           id="path15588"
           d="m 140.60116,-2022.6289 -0.0994,2.326"
           style="fill:none;stroke:#000000;stroke-width:0.31809935px;stroke-linecap:butt;stroke-linejoin:miter;stroke-opacity:1" />
        <path
           style="fill:none;stroke:#000000;stroke-width:0.31809935px;stroke-linecap:butt;stroke-linejoin:miter;stroke-opacity:1"
           d="m 140.75533,-2022.4748 -2.32602,-0.1"
           id="path15594"
           inkscape:connector-curvature="0"
           sodipodi:nodetypes="cc" />
      </g>
    </g>
    <g
       id="g15636"
       transform="matrix(0.74309022,2.0488319,-2.0488319,0.74309022,-4151.1715,1331.0322)"
       style="stroke-linecap:butt;stroke-linejoin:round"
       inkscape:transform-center-x="-18.720608"
       inkscape:transform-center-y="11.420276">
      <path
         sodipodi:nodetypes="cc"
         inkscape:connector-curvature="0"
         id="path15628"
         d="m 126.13261,-2011.1227 14.394,-11.2925"
         style="fill:none;stroke:#000000;stroke-width:0.31809935px;stroke-linecap:butt;stroke-linejoin:miter;stroke-opacity:1" />
      <g
         id="g15634"
         style="stroke-linecap:butt;stroke-linejoin:round">
        <path
           style="fill:none;stroke:#000000;stroke-width:0.31809935px;stroke-linecap:butt;stroke-linejoin:miter;stroke-opacity:1"
           d="m 140.60116,-2022.6289 -0.0994,2.326"
           id="path15630"
           inkscape:connector-curvature="0"
           sodipodi:nodetypes="cc" />
        <path
           sodipodi:nodetypes="cc"
           inkscape:connector-curvature="0"
           id="path15632"
           d="m 140.75533,-2022.4748 -2.32602,-0.1"
           style="fill:none;stroke:#000000;stroke-width:0.31809935px;stroke-linecap:butt;stroke-linejoin:miter;stroke-opacity:1" />
      </g>
    </g>
    <g
       inkscape:transform-center-y="18.500418"
       inkscape:transform-center-x="-11.574014"
       style="stroke-linecap:butt;stroke-linejoin:round"
       transform="matrix(-0.33624955,2.1533303,-2.1533303,-0.33624955,-4163.5516,-860.95153)"
       id="g5844">
      <path
         style="fill:none;stroke:#000000;stroke-width:0.31809935px;stroke-linecap:butt;stroke-linejoin:miter;stroke-opacity:1"
         d="m 126.13261,-2011.1227 14.394,-11.2925"
         id="path5836"
         inkscape:connector-curvature="0"
         sodipodi:nodetypes="cc" />
      <g
         style="stroke-linecap:butt;stroke-linejoin:round"
         id="g5842">
        <path
           sodipodi:nodetypes="cc"
           inkscape:connector-curvature="0"
           id="path5838"
           d="m 140.60116,-2022.6289 -0.0994,2.326"
           style="fill:none;stroke:#000000;stroke-width:0.31809935px;stroke-linecap:butt;stroke-linejoin:miter;stroke-opacity:1" />
        <path
           style="fill:none;stroke:#000000;stroke-width:0.31809935px;stroke-linecap:butt;stroke-linejoin:miter;stroke-opacity:1"
           d="m 140.75533,-2022.4748 -2.32602,-0.1"
           id="path5840"
           inkscape:connector-curvature="0"
           sodipodi:nodetypes="cc" />
      </g>
    </g>
    <path
       id="path7239"
       d="m 58.852533,91.163362 0.02877,-0.059 0.02877,-0.0561 0.04317,-0.0547 0.02877,-0.0533 0.02877,-0.0259 0.01439,-0.0244 0.01438,-0.0244 0.02877,-0.0244 0.01439,-0.0231 0.01438,-0.0216 0.02877,-0.0216 0.01439,-0.0216 0.02877,-0.0187 0.02877,-0.0201 0.01438,-0.0173 0.02877,-0.0173 0.02877,-0.0173 0.02877,-0.0143 0.02877,-0.0144 0.02877,-0.0144 0.02877,-0.0115 0.04315,-0.0115 0.02877,-0.0102 0.04315,-0.009 0.02877,-0.009 0.04315,-0.006 0.04317,-0.006 0.02877,-0.005 c 0.07194,-0.006 0.143864,-0.006 0.143864,-0.14386 0,-0.0259 -0.02877,-0.0777 -0.08632,-0.0777 -0.172637,0 -0.374045,0.0216 -0.546682,0.0216 -0.244568,0 -0.517909,-0.0216 -0.74809,-0.0216 -0.04315,0 -0.143864,0 -0.143864,0.13667 0,0.0791 0.07193,0.0849 0.115091,0.0849 0.172636,0.007 0.417204,0.0661 0.417204,0.2791 0,0.0791 -0.02877,0.13667 -0.08632,0.23881 l -1.942158,3.3736 -0.258955,-3.55343 c -0.01438,-0.14386 -0.02877,-0.33088 0.489137,-0.33808 0.129477,0 0.201408,0 0.201408,-0.14387 0,-0.0719 -0.07193,-0.0777 -0.100699,-0.0777 -0.287727,0 -0.589841,0.0216 -0.877568,0.0216 -0.172637,0 -0.589841,-0.0216 -0.762477,-0.0216 -0.04316,0 -0.129477,0 -0.129477,0.14387 0,0.0777 0.07194,0.0777 0.172636,0.0777 0.3165,0 0.359658,0.0432 0.374045,0.17983 l 0.04315,0.551 -1.812682,3.16068 -0.27334,-3.63255 c 0,-0.0849 0,-0.25176 0.546682,-0.25896 0.07193,0 0.158249,0 0.158249,-0.14387 0,-0.0777 -0.08632,-0.0777 -0.1007,-0.0777 -0.287727,0 -0.589841,0.0216 -0.891954,0.0216 -0.244568,0 -0.503522,-0.0216 -0.748091,-0.0216 -0.02877,0 -0.129477,0 -0.129477,0.13668 0,0.0849 0.07194,0.0849 0.187023,0.0849 0.35966,0 0.35966,0.0661 0.374045,0.26615 l 0.3165,4.37921 c 0.01439,0.12948 0.02877,0.18558 0.129477,0.18558 0.07194,0 0.100711,-0.0417 0.15825,-0.14961 l 2.114795,-3.65557 0.258954,3.6196 c 0.01438,0.14962 0.02877,0.18558 0.115091,0.18558 0.1007,0 0.143863,-0.0719 0.172636,-0.13523 z"
       inkscape:connector-curvature="0"
       style="font-style:normal;font-variant:normal;font-weight:normal;font-stretch:normal;letter-spacing:normal;word-spacing:normal;text-anchor:start;fill:#000000;fill-opacity:1;fill-rule:evenodd;stroke:#000000;stroke-width:0;stroke-linecap:butt;stroke-linejoin:miter;stroke-miterlimit:10.43299961;stroke-dasharray:none;stroke-dashoffset:0;stroke-opacity:1" />
    <path
       id="path7241"
       d="m 100.2377,72.026961 -0.604223,-1.42568 c -0.02877,-0.059 -0.04316,-0.0849 -0.04316,-0.092 0,-0.0447 0.129477,-0.17983 0.431593,-0.2086 0.0719,-0.007 0.14386,-0.0144 0.14386,-0.13811 0,-0.0849 -0.0863,-0.0849 -0.11509,-0.0849 -0.287727,0 -0.604227,0.0231 -0.891954,0.0231 -0.187023,0 -0.633,-0.0231 -0.805635,-0.0231 -0.04317,0 -0.129477,0 -0.129477,0.14386 0,0.0791 0.07193,0.0791 0.158248,0.0791 0.431592,0 0.47475,0.0719 0.546683,0.22874 l 0.834408,2.00115 -1.510568,1.62708 -0.08632,0.0791 c -0.35966,0.37981 -0.690545,0.49345 -1.050205,0.5136 -0.100699,0.007 -0.15825,0.007 -0.15825,0.14386 0,0.007 0,0.0791 0.08632,0.0791 0.215795,0 0.445977,-0.0231 0.676158,-0.0231 0.258955,0 0.546682,0.0231 0.805636,0.0231 0.04317,0 0.129478,0 0.129478,-0.14385 0,-0.0719 -0.07194,-0.0791 -0.08632,-0.0791 -0.07193,-0.006 -0.287727,-0.0201 -0.287727,-0.22156 0,-0.11508 0.1007,-0.23017 0.187023,-0.32224 l 0.733704,-0.77544 0.647386,-0.70061 0.719322,1.71199 c 0.0288,0.0791 0.0432,0.0863 0.0432,0.10209 0,0.0561 -0.14387,0.17695 -0.41721,0.20572 -0.0863,0.007 -0.14386,0.0158 -0.14386,0.13811 0,0.0849 0.0719,0.0849 0.1007,0.0849 0.20141,0 0.70493,-0.0231 0.90634,-0.0231 0.18702,0 0.61861,0.0231 0.79125,0.0231 0.0576,0 0.14386,0 0.14386,-0.13666 0,-0.0863 -0.0719,-0.0863 -0.12948,-0.0863 -0.47475,-0.006 -0.48913,-0.0288 -0.61861,-0.31362 -0.27334,-0.66754 -0.76248,-1.78535 -0.92073,-2.21407 0.48914,-0.50352 1.23723,-1.35664 1.46741,-1.5566 0.20141,-0.17264 0.47475,-0.34384 0.90634,-0.36541 0.1007,-0.007 0.15825,-0.007 0.15825,-0.14387 0,-0.007 0,-0.0791 -0.0863,-0.0791 -0.21579,0 -0.46036,0.0231 -0.67616,0.0231 -0.27334,0 -0.54668,-0.0231 -0.79125,-0.0231 -0.0431,0 -0.14386,0 -0.14386,0.14387 0,0.0489 0.0432,0.0719 0.0863,0.0791 0.0719,0.006 0.28773,0.0216 0.28773,0.22154 0,0.10221 -0.0719,0.19422 -0.12948,0.25896 z"
       inkscape:connector-curvature="0"
       style="font-style:normal;font-variant:normal;font-weight:normal;font-stretch:normal;letter-spacing:normal;word-spacing:normal;text-anchor:start;fill:#000000;fill-opacity:1;fill-rule:evenodd;stroke:#000000;stroke-width:0;stroke-linecap:butt;stroke-linejoin:miter;stroke-miterlimit:10.43299961;stroke-dasharray:none;stroke-dashoffset:0;stroke-opacity:1" />
    <path
       id="path7243"
       d="m 94.141343,120.17234 0.1007,-0.1022 c 0.215795,-0.2158 0.445977,-0.45749 0.935113,-0.49345 0.08632,-0.007 0.143863,-0.007 0.143863,-0.13811 0,-0.0561 -0.02877,-0.0849 -0.08632,-0.0849 -0.187023,0 -0.402817,0.0231 -0.58984,0.0231 -0.230182,0 -0.489136,-0.0231 -0.719318,-0.0231 -0.04317,0 -0.129477,0 -0.129477,0.13668 0,0.0791 0.07193,0.0863 0.100699,0.0863 0.05755,0 0.258956,0.0129 0.258956,0.164 0,0.12373 -0.15825,0.30786 -0.187023,0.34384 l -1.668818,1.91482 -0.791249,-2.12918 c -0.04315,-0.10073 -0.04315,-0.11365 -0.04315,-0.12084 0,-0.17264 0.359659,-0.17264 0.417204,-0.17264 0.115091,0 0.187023,0 0.187023,-0.14387 0,-0.0791 -0.08632,-0.0791 -0.11509,-0.0791 -0.20141,0 -0.704933,0.0231 -0.906341,0.0231 -0.172637,0 -0.618614,-0.0231 -0.805637,-0.0231 -0.02877,0 -0.129477,0 -0.129477,0.14387 0,0.0791 0.07194,0.0791 0.172637,0.0791 0.417204,0 0.445977,0.0648 0.517909,0.24169 l 0.877568,2.3608 c 0.01438,0.0201 0.02877,0.0993 0.02877,0.12084 0,0.0201 -0.287727,1.17681 -0.316499,1.30485 -0.1007,0.39274 -0.1007,0.41576 -0.67616,0.42152 -0.143863,0 -0.201408,0 -0.201408,0.14386 0,0.0791 0.08632,0.0791 0.1007,0.0791 0.201408,0 0.704931,-0.0231 0.90634,-0.0231 0.201409,0 0.719318,0.0231 0.920727,0.0231 0.04315,0 0.129477,0 0.129477,-0.14386 0,-0.0791 -0.05755,-0.0791 -0.201409,-0.0791 0,0 -0.143863,0 -0.258954,-0.0129 -0.15825,-0.0158 -0.201409,-0.0288 -0.201409,-0.11509 0,-0.0518 0.07193,-0.30068 0.100699,-0.45173 l 0.244569,-1.01136 c 0.04315,-0.13524 0.04315,-0.15682 0.115091,-0.223 z"
       inkscape:connector-curvature="0"
       style="font-style:normal;font-variant:normal;font-weight:normal;font-stretch:normal;letter-spacing:normal;word-spacing:normal;text-anchor:start;fill:#000000;fill-opacity:1;fill-rule:evenodd;stroke:#000000;stroke-width:0;stroke-linecap:butt;stroke-linejoin:miter;stroke-miterlimit:10.43299961;stroke-dasharray:none;stroke-dashoffset:0;stroke-opacity:1" />
    <path
       id="path7245"
       d="m 103.5865,90.190301 v -0.0521 -0.0511 -0.05 l -0.0144,-0.0487 v -0.0942 l -0.0144,-0.0901 -0.0144,-0.0857 -0.0288,-0.0815 -0.0144,-0.0776 -0.0288,-0.0737 -0.0288,-0.0696 -0.0288,-0.0658 -0.0288,-0.0622 -0.0432,-0.0582 -0.0288,-0.0548 -0.0431,-0.0513 -0.0432,-0.0478 -0.0431,-0.0444 -0.0432,-0.0412 -0.0431,-0.0379 -0.0432,-0.0348 -0.0575,-0.0318 -0.0432,-0.0288 -0.0575,-0.0258 -0.0431,-0.0231 -0.0576,-0.0204 -0.0432,-0.0175 -0.0575,-0.0152 -0.0576,-0.0124 -0.0431,-0.0102 -0.0575,-0.008 -0.0432,-0.006 -0.0576,-0.003 -0.0431,-0.001 -0.0144,0.15739 c 0.70493,0 0.70493,0.93956 0.70493,1.49704 0,0.26528 0,0.68105 0.0144,0.80247 v 0 c -0.61861,0.55301 -1.17968,0.63171 -1.46741,0.63171 -0.43158,0 -0.63299,-0.3237 -0.63299,-0.78233 0,-0.3506 0.18702,-1.12387 0.4172,-1.49029 0.33088,-0.52381 0.71932,-0.6586 0.96388,-0.6586 l 0.0144,-0.15739 c -0.97827,0 -1.92777,1.02503 -1.92777,2.03438 0,0.66752 0.4316,1.21147 1.15091,1.21147 0.46036,0 0.97827,-0.164 1.52496,-0.60236 0.0863,0.37994 0.31649,0.60236 0.64738,0.60236 0.37405,0 0.60423,-0.39333 0.60423,-0.50799 0,-0.0517 -0.0431,-0.0719 -0.0863,-0.0719 -0.0576,0 -0.0719,0.0202 -0.1007,0.0719 -0.12948,0.35075 -0.38843,0.35075 -0.40282,0.35075 -0.21579,0 -0.21579,-0.55978 -0.21579,-0.73054 0,-0.15063 0,-0.16646 0.0719,-0.25177 0.67616,-0.8452 0.82002,-1.67701 0.82002,-1.68377 0,-0.0157 0,-0.0719 -0.0863,-0.0719 -0.0719,0 -0.0719,0.0202 -0.1007,0.15063 -0.12948,0.45187 -0.37405,0.99582 -0.70493,1.4185 z"
       inkscape:connector-curvature="0"
       style="font-style:normal;font-variant:normal;font-weight:normal;font-stretch:normal;letter-spacing:normal;word-spacing:normal;text-anchor:start;fill:#000000;fill-opacity:1;fill-rule:evenodd;stroke:#000000;stroke-width:0;stroke-linecap:butt;stroke-linejoin:miter;stroke-miterlimit:10.43299961;stroke-dasharray:none;stroke-dashoffset:0;stroke-opacity:1" />
    <g
       id="g7354"
       transform="matrix(1.1305673,0,0,1.1305673,69.723598,-125.9735)">
      <path
         style="font-style:normal;font-variant:normal;font-weight:normal;font-stretch:normal;letter-spacing:normal;word-spacing:normal;text-anchor:start;fill:#000000;fill-opacity:1;fill-rule:evenodd;stroke:#000000;stroke-width:0;stroke-linecap:butt;stroke-linejoin:miter;stroke-miterlimit:10.43299961;stroke-dasharray:none;stroke-dashoffset:0;stroke-opacity:1"
         inkscape:connector-curvature="0"
         d="m 52.36453,181.80443 0.06362,-0.0139 0.06363,-0.0157 0.06362,-0.0174 0.06363,-0.0192 0.0509,-0.0209 0.06363,-0.0225 0.06362,-0.0242 0.06362,-0.0259 0.0509,-0.0275 0.06362,-0.0291 0.06363,-0.0307 0.0509,-0.0323 0.06363,-0.0338 0.0509,-0.0354 0.0509,-0.0369 0.0509,-0.0383 0.0509,-0.0398 0.0509,-0.0413 0.03817,-0.0427 0.0509,-0.0441 0.03818,-0.0455 0.03817,-0.0469 0.02545,-0.0482 0.03818,-0.0496 0.02545,-0.0509 0.02545,-0.0523 0.02545,-0.0534 0.01273,-0.0547 0.01272,-0.0561 0.01273,-0.0571 0.01272,-0.0585 v -0.0596 c 0,-0.54476 -0.572621,-0.95043 -1.399739,-0.95043 h -1.806936 c -0.127249,0 -0.190874,0 -0.190874,0.12725 0,0.0696 0.06363,0.0696 0.178149,0.0696 0.01273,0 0.139974,0 0.241773,0.012 0.114524,0.0139 0.178149,0.0199 0.178149,0.10142 0,0.0258 -0.01272,0.0457 -0.02545,0.12126 l -0.852568,3.40388 c -0.06363,0.24855 -0.07635,0.29818 -0.572621,0.29818 -0.114524,0 -0.178149,0 -0.178149,0.12725 0,0.0696 0.07635,0.0696 0.08908,0.0696 0.178148,0 0.62352,-0.0198 0.801668,-0.0198 0.178149,0 0.623521,0.0198 0.801669,0.0198 0.0509,0 0.127249,0 0.127249,-0.12725 0,-0.0696 -0.0509,-0.0696 -0.178148,-0.0696 -0.229049,0 -0.407197,0 -0.407197,-0.11328 0,-0.0378 0.01273,-0.0696 0.01273,-0.10737 l 0.419921,-1.68008 h 0.763495 l -0.01273,-0.14117 H 51.04114 l 0.419922,-1.65418 c 0.03818,-0.15117 0.0509,-0.21479 0.178149,-0.23464 0.0509,-0.006 0.254498,-0.006 0.381747,-0.006 0.445371,0 1.157966,0 1.157966,0.62822 0,0.2148 -0.1018,0.65216 -0.356298,0.89875 -0.165423,0.16503 -0.496271,0.36783 -1.068891,0.36783 l 0.01273,0.14117 c 0.57262,0 0.687144,0.35392 0.687144,0.5766 0,0.0954 -0.0509,0.29028 -0.08907,0.43742 -0.0509,0.17695 -0.101799,0.41156 -0.101799,0.53881 0,0.68396 0.763494,0.68396 0.839843,0.68396 0.547171,0 0.763494,-0.64021 0.763494,-0.72968 0,-0.0756 -0.07635,-0.0756 -0.07635,-0.0756 -0.06362,0 -0.07635,0.0457 -0.08908,0.0895 -0.152698,0.46917 -0.419921,0.57656 -0.57262,0.57656 -0.203598,0 -0.254498,-0.13921 -0.254498,-0.38767 0,-0.19485 0.03818,-0.51894 0.06362,-0.72175 0.01272,-0.0895 0.02545,-0.20876 0.02545,-0.29823 0,-0.48712 -0.419922,-0.68396 -0.59807,-0.74759 z"
         id="path7247" />
      <path
         style="font-style:normal;font-variant:normal;font-weight:normal;font-stretch:normal;letter-spacing:normal;word-spacing:normal;text-anchor:start;fill:#000000;fill-opacity:1;fill-rule:evenodd;stroke:#000000;stroke-width:0;stroke-linecap:butt;stroke-linejoin:miter;stroke-miterlimit:10.43299961;stroke-dasharray:none;stroke-dashoffset:0;stroke-opacity:1"
         inkscape:connector-curvature="0"
         d="m 58.485207,182.40141 0.07635,-0.11532 c 0.08907,-0.1193 0.203598,-0.23065 0.419921,-0.24854 0.0509,-0.004 0.1018,-0.008 0.1018,-0.0974 0,-0.0318 -0.02545,-0.0616 -0.06363,-0.0616 -0.101799,0 -0.229048,0.0179 -0.343572,0.0179 -0.152699,0 -0.343573,-0.0179 -0.483546,-0.0179 -0.02545,0 -0.1018,0 -0.1018,0.0974 0,0.0577 0.06362,0.0616 0.08908,0.0616 0.101799,0.004 0.241773,0.0318 0.241773,0.15509 0,0.0497 -0.0509,0.12924 -0.06362,0.15906 l -1.259765,2.05385 -0.241773,-2.23876 c 0,-0.12526 0.254498,-0.12924 0.318122,-0.12924 0.0509,0 0.114525,0 0.114525,-0.0974 0,-0.004 0,-0.0616 -0.07635,-0.0616 -0.07635,0 -0.190873,0.008 -0.267223,0.0139 -0.08907,0.004 -0.203598,0.004 -0.305397,0.004 -0.08907,0 -0.356298,-0.0179 -0.458097,-0.0179 -0.02545,0 -0.08907,0 -0.08907,0.0974 0,0.0616 0.0509,0.0616 0.114524,0.0616 0.190873,0 0.216323,0.0318 0.229048,0.0756 0,0.0258 0.01273,0.15111 0.02545,0.2883 l -1.221591,2.00414 -0.229048,-2.17314 c 0,-0.0179 -0.01272,-0.0616 -0.01272,-0.0656 0,-0.12924 0.279948,-0.12924 0.318123,-0.12924 0.0509,0 0.114524,0 0.114524,-0.0974 0,-0.0179 -0.01272,-0.0616 -0.07635,-0.0616 -0.127249,0 -0.432647,0.0179 -0.559896,0.0179 -0.152699,0 -0.343572,-0.0179 -0.470821,-0.0179 -0.0509,0 -0.08908,0.0179 -0.08908,0.0934 0,0.0656 0.0509,0.0656 0.127249,0.0656 0.203599,0 0.203599,0.0278 0.216324,0.13719 l 0.292672,2.70011 c 0.01272,0.0894 0.02545,0.12127 0.1018,0.12127 0.07635,0 0.101799,-0.0398 0.127249,-0.0895 l 1.387014,-2.2786 0.241773,2.25277 c 0.01272,0.0914 0.03818,0.11529 0.101799,0.11529 0.07635,0 0.101799,-0.0398 0.127249,-0.0935 z"
         id="path7249" />
      <path
         style="font-style:normal;font-variant:normal;font-weight:normal;font-stretch:normal;letter-spacing:normal;word-spacing:normal;text-anchor:start;fill:#000000;fill-opacity:1;fill-rule:evenodd;stroke:#000000;stroke-width:0;stroke-linecap:butt;stroke-linejoin:miter;stroke-miterlimit:10.43299961;stroke-dasharray:none;stroke-dashoffset:0;stroke-opacity:1"
         inkscape:connector-curvature="0"
         d="m 61.755507,185.48068 v -0.003 -0.003 -0.002 -0.002 -0.002 -0.002 -0.002 -0.002 -0.002 -0.003 -0.003 l -0.01273,-0.003 v -0.003 -0.003 -0.004 -0.004 l -0.01272,-0.004 v -0.005 -0.002 -0.002 -0.003 l -0.01273,-0.003 v -0.003 -0.003 -0.003 -0.003 l -0.01272,-0.003 v -0.003 -0.003 -0.003 l -0.01273,-0.004 v -0.004 -0.004 -0.004 l -0.01273,-0.004 v -0.004 -0.004 l -0.01272,-0.004 v -0.004 -0.005 l -0.01272,-0.005 v -0.005 c -0.788944,-0.79938 -0.992543,-1.99626 -0.992543,-2.96654 0,-1.10348 0.241773,-2.20703 1.017992,-2.99826 0.07635,-0.0776 0.07635,-0.0895 0.07635,-0.10943 0,-0.0437 -0.02545,-0.0616 -0.06363,-0.0616 -0.06362,0 -0.62352,0.42946 -1.005267,1.23469 -0.318122,0.69789 -0.394472,1.40174 -0.394472,1.93459 0,0.49508 0.06362,1.26056 0.419922,1.97832 0.369022,0.7794 0.916193,1.19093 0.979817,1.19093 0.03818,0 0.06363,-0.0178 0.06363,-0.0636 z"
         id="path7251" />
      <path
         style="font-style:normal;font-variant:normal;font-weight:normal;font-stretch:normal;letter-spacing:normal;word-spacing:normal;text-anchor:start;fill:#000000;fill-opacity:1;fill-rule:evenodd;stroke:#000000;stroke-width:0;stroke-linecap:butt;stroke-linejoin:miter;stroke-miterlimit:10.43299961;stroke-dasharray:none;stroke-dashoffset:0;stroke-opacity:1"
         inkscape:connector-curvature="0"
         d="m 65.19123,181.35309 -0.534446,-1.26051 c -0.01273,-0.0518 -0.02545,-0.0756 -0.02545,-0.0816 0,-0.0397 0.1018,-0.15906 0.369023,-0.18489 0.06362,-0.006 0.127249,-0.012 0.127249,-0.12127 0,-0.0756 -0.07635,-0.0756 -0.08907,-0.0756 -0.267223,0 -0.534446,0.0199 -0.801669,0.0199 -0.152698,0 -0.54717,-0.0199 -0.712594,-0.0199 -0.03818,0 -0.114524,0 -0.114524,0.12725 0,0.0696 0.06362,0.0696 0.152699,0.0696 0.381747,0 0.407197,0.0636 0.470821,0.20283 l 0.750769,1.76951 -1.336114,1.43951 -0.08908,0.0696 c -0.305397,0.33601 -0.610795,0.43744 -0.928917,0.45526 -0.07635,0.006 -0.139974,0.006 -0.139974,0.12725 0,0.006 0,0.0696 0.08907,0.0696 0.178149,0 0.394472,-0.0198 0.585345,-0.0198 0.241774,0 0.483547,0.0198 0.712595,0.0198 0.03818,0 0.114524,0 0.114524,-0.12725 0,-0.0636 -0.06363,-0.0696 -0.07635,-0.0696 -0.0509,-0.006 -0.254498,-0.0178 -0.254498,-0.19679 0,-0.10139 0.101799,-0.2028 0.178148,-0.28431 l 0.636245,-0.68597 0.572621,-0.62033 0.64897,1.51506 c 0.02545,0.0696 0.02545,0.0756 0.02545,0.0895 0,0.0497 -0.114525,0.15704 -0.369023,0.18287 -0.06362,0.006 -0.127249,0.014 -0.127249,0.12127 0,0.0756 0.07635,0.0756 0.1018,0.0756 0.178148,0 0.62352,-0.0198 0.788943,-0.0198 0.165424,0 0.547171,0.0198 0.712595,0.0198 0.03818,0 0.114524,0 0.114524,-0.12126 0,-0.0756 -0.06363,-0.0756 -0.114524,-0.0756 -0.419922,-0.006 -0.432647,-0.0258 -0.547171,-0.27831 -0.241773,-0.59051 -0.661695,-1.57867 -0.814394,-1.95844 0.432647,-0.44541 1.094342,-1.19897 1.29794,-1.37585 0.190874,-0.15308 0.432647,-0.30425 0.814394,-0.3241 0.07635,-0.006 0.139974,-0.006 0.139974,-0.12725 0,-0.006 0,-0.0696 -0.08907,-0.0696 -0.190874,0 -0.394472,0.0199 -0.598071,0.0199 -0.229048,0 -0.470821,-0.0199 -0.699869,-0.0199 -0.03818,0 -0.127249,0 -0.127249,0.12725 0,0.0438 0.03817,0.0636 0.07635,0.0696 0.06363,0.006 0.254498,0.0198 0.254498,0.19685 0,0.0895 -0.06362,0.17102 -0.114524,0.22867 z"
         id="path7253" />
      <path
         style="font-style:normal;font-variant:normal;font-weight:normal;font-stretch:normal;letter-spacing:normal;word-spacing:normal;text-anchor:start;fill:#000000;fill-opacity:1;fill-rule:evenodd;stroke:#000000;stroke-width:0;stroke-linecap:butt;stroke-linejoin:miter;stroke-miterlimit:10.43299961;stroke-dasharray:none;stroke-dashoffset:0;stroke-opacity:1"
         inkscape:connector-curvature="0"
         d="m 68.805102,183.95369 v -0.0388 -0.0378 -0.0368 -0.0356 -0.0346 l -0.01273,-0.0336 v -0.0325 l -0.01273,-0.0313 v -0.0302 l -0.01273,-0.0291 -0.01272,-0.028 -0.01273,-0.0268 v -0.0256 l -0.01272,-0.0244 -0.01273,-0.0232 -0.01272,-0.022 -0.01273,-0.0208 -0.01273,-0.0195 -0.02545,-0.0183 -0.01273,-0.017 -0.01273,-0.0157 -0.01273,-0.0144 -0.02545,-0.0131 -0.01273,-0.0118 -0.02545,-0.0105 -0.01273,-0.009 -0.02545,-0.008 -0.02545,-0.006 -0.01272,-0.005 -0.02545,-0.004 -0.02545,-0.002 -0.01273,-7.3e-4 c -0.216323,0 -0.343572,0.15906 -0.343572,0.33603 0,0.17093 0.127249,0.33597 0.343572,0.33597 0.06363,0 0.152699,-0.0258 0.216323,-0.0814 0.01273,-0.014 0.02545,-0.02 0.03817,-0.02 0,0 0,0.006 0,0.0954 0,0.4693 -0.216323,0.84901 -0.419922,1.05782 -0.07635,0.0696 -0.07635,0.0835 -0.07635,0.10142 0,0.0457 0.03817,0.0696 0.06362,0.0696 0.07635,0 0.572621,-0.48711 0.572621,-1.22885 z"
         id="path7255" />
      <path
         style="font-style:normal;font-variant:normal;font-weight:normal;font-stretch:normal;letter-spacing:normal;word-spacing:normal;text-anchor:start;fill:#000000;fill-opacity:1;fill-rule:evenodd;stroke:#000000;stroke-width:0;stroke-linecap:butt;stroke-linejoin:miter;stroke-miterlimit:10.43299961;stroke-dasharray:none;stroke-dashoffset:0;stroke-opacity:1"
         inkscape:connector-curvature="0"
         d="m 73.360617,182.46255 v -0.0461 -0.0451 -0.0441 l -0.01273,-0.0431 v -0.0834 l -0.01273,-0.0796 -0.01273,-0.0759 -0.02545,-0.0722 -0.01273,-0.0686 -0.02545,-0.0651 -0.02545,-0.0616 -0.02545,-0.0582 -0.02545,-0.0549 -0.03817,-0.0516 -0.02545,-0.0485 -0.03817,-0.0453 -0.03817,-0.0423 -0.03818,-0.0393 -0.03817,-0.0364 -0.03817,-0.0335 -0.0509,-0.0308 -0.03817,-0.0281 -0.03818,-0.0254 -0.0509,-0.0229 -0.03817,-0.0204 -0.0509,-0.0179 -0.0509,-0.0156 -0.03817,-0.0133 -0.0509,-0.011 -0.03818,-0.009 -0.0509,-0.007 -0.03817,-0.005 -0.0509,-0.003 -0.0509,-9.1e-4 v 0.13917 c 0.62352,0 0.62352,0.8311 0.62352,1.32419 0,0.23461 0,0.60244 0.01273,0.70981 v 0 c -0.547171,0.48904 -1.043442,0.55865 -1.29794,0.55865 -0.381747,0 -0.572621,-0.28626 -0.572621,-0.69187 0,-0.31017 0.165424,-0.99413 0.369023,-1.31822 0.305397,-0.46326 0.64897,-0.58256 0.865293,-0.58256 v -0.13917 c -0.865293,0 -1.692412,0.90665 -1.692412,1.79938 0,0.59051 0.369022,1.07165 1.017992,1.07165 0.407197,0 0.865293,-0.14519 1.336115,-0.53283 0.08907,0.33597 0.292672,0.53283 0.585345,0.53283 0.330848,0 0.521721,-0.3479 0.521721,-0.44933 0,-0.0457 -0.02545,-0.0636 -0.06362,-0.0636 -0.0509,0 -0.06362,0.0179 -0.08907,0.0636 -0.114524,0.31012 -0.343572,0.31012 -0.356297,0.31012 -0.190873,0 -0.190873,-0.49503 -0.190873,-0.64613 0,-0.13322 0,-0.14714 0.06362,-0.22269 0.59807,-0.74759 0.725319,-1.48325 0.725319,-1.48921 0,-0.0139 -0.01272,-0.0636 -0.07635,-0.0636 -0.06363,0 -0.06363,0.0179 -0.08907,0.1332 -0.114524,0.39965 -0.330848,0.88081 -0.62352,1.2546 z"
         id="path7257" />
      <path
         style="font-style:normal;font-variant:normal;font-weight:normal;font-stretch:normal;letter-spacing:normal;word-spacing:normal;text-anchor:start;fill:#000000;fill-opacity:1;fill-rule:evenodd;stroke:#000000;stroke-width:0;stroke-linecap:butt;stroke-linejoin:miter;stroke-miterlimit:10.43299961;stroke-dasharray:none;stroke-dashoffset:0;stroke-opacity:1"
         inkscape:connector-curvature="0"
         d="m 76.261894,182.37506 v -0.0472 -0.0487 l -0.01273,-0.0502 v -0.0516 -0.10728 l -0.01272,-0.11225 -0.01273,-0.11672 -0.01273,-0.12075 -0.01273,-0.12427 -0.02545,-0.12734 -0.02545,-0.12992 -0.02545,-0.13204 -0.02545,-0.13367 -0.0509,-0.13488 -0.03817,-0.13552 -0.0509,-0.13565 -0.02545,-0.0678 -0.02545,-0.0677 -0.03817,-0.0674 -0.02545,-0.0673 c -0.381747,-0.7794 -0.928918,-1.19092 -0.992542,-1.19092 -0.03817,0 -0.06363,0.0238 -0.06363,0.0616 0,0.02 0,0.0318 0.114525,0.14722 0.62352,0.6262 0.992542,1.63426 0.992542,2.96047 0,1.08361 -0.241773,2.19897 -1.017992,2.99835 -0.08908,0.0755 -0.08908,0.0895 -0.08908,0.10727 0,0.0378 0.02545,0.0636 0.06363,0.0636 0.06362,0 0.636245,-0.43138 1.005267,-1.23661 0.330848,-0.69594 0.407197,-1.39978 0.407197,-1.93264 z"
         id="path7259" />
    </g>
    <g
       id="g7365"
       transform="matrix(1.1305673,0,0,1.1305673,90.795771,-106.8857)">
      <path
         style="font-style:normal;font-variant:normal;font-weight:normal;font-stretch:normal;letter-spacing:normal;word-spacing:normal;text-anchor:start;fill:#000000;fill-opacity:1;fill-rule:evenodd;stroke:#000000;stroke-width:0;stroke-linecap:butt;stroke-linejoin:miter;stroke-miterlimit:10.43299961;stroke-dasharray:none;stroke-dashoffset:0;stroke-opacity:1"
         inkscape:connector-curvature="0"
         d="m 49.412353,191.42957 h 1.056167 c 0.827118,0 1.145241,-0.48113 1.145241,-0.5646 0,-0.0318 -0.02545,-0.0438 -0.0509,-0.0438 -0.07635,0 -0.229048,0.0636 -0.394472,0.17701 -0.0509,0.0378 -0.06362,0.0378 -0.190873,0.0378 h -2.761304 c -0.788944,0 -1.666962,0.67798 -1.666962,1.19894 0,0.0377 0,0.0755 0.0509,0.0755 0.152699,0 0.54717,-0.20869 0.559895,-0.36177 0.01273,-0.1074 0.01273,-0.22676 0.139974,-0.3918 0.06363,-0.0775 0.114524,-0.12725 0.407197,-0.12725 h 1.24704 c -0.101799,0.0696 -0.127249,0.16504 -0.139974,0.22867 l -0.725319,2.87112 c -0.07635,0.3101 -0.203598,0.70992 -0.381747,1.12093 -0.03818,0.0776 -0.03818,0.0904 -0.03818,0.10435 0,0.0369 0.01273,0.0433 0.0509,0.0433 0.127249,0 0.432647,-0.17051 0.534446,-0.30412 0.03817,-0.0636 0.318122,-0.70992 0.445371,-1.23686 z"
         id="path7261" />
      <path
         style="font-style:normal;font-variant:normal;font-weight:normal;font-stretch:normal;letter-spacing:normal;word-spacing:normal;text-anchor:start;fill:#000000;fill-opacity:1;fill-rule:evenodd;stroke:#000000;stroke-width:0;stroke-linecap:butt;stroke-linejoin:miter;stroke-miterlimit:10.43299961;stroke-dasharray:none;stroke-dashoffset:0;stroke-opacity:1"
         inkscape:connector-curvature="0"
         d="m 54.375064,193.82351 0.07635,-0.11529 c 0.08907,-0.11936 0.203598,-0.2307 0.419921,-0.24852 0.0509,-0.004 0.1018,-0.008 0.1018,-0.0975 0,-0.0318 -0.02545,-0.0616 -0.06363,-0.0616 -0.101799,0 -0.229048,0.0178 -0.330847,0.0178 -0.165424,0 -0.356298,-0.0178 -0.496271,-0.0178 -0.02545,0 -0.08908,0 -0.08908,0.0974 0,0.0576 0.06363,0.0617 0.07635,0.0617 0.101799,0.004 0.241773,0.0318 0.241773,0.15499 0,0.0498 -0.0509,0.12929 -0.06362,0.15906 l -1.24704,2.05342 -0.254498,-2.23831 c 0,-0.12521 0.267223,-0.12916 0.318122,-0.12916 0.0509,0 0.114525,0 0.114525,-0.0975 0,-0.004 0,-0.0616 -0.07635,-0.0616 -0.07635,0 -0.190873,0.008 -0.267223,0.0139 -0.08907,0.004 -0.203598,0.004 -0.292673,0.004 -0.101799,0 -0.369022,-0.0178 -0.470821,-0.0178 -0.02545,0 -0.08907,0 -0.08907,0.0974 0,0.0617 0.06362,0.0617 0.114524,0.0617 0.190873,0 0.216323,0.0318 0.229048,0.0755 0,0.0258 0.01273,0.15117 0.03818,0.28835 l -1.221591,2.00366 -0.241773,-2.17265 c 0,-0.0179 0,-0.0617 0,-0.0657 0,-0.12916 0.267223,-0.12916 0.305398,-0.12916 0.0509,0 0.114524,0 0.114524,-0.0975 0,-0.0179 -0.01273,-0.0616 -0.06363,-0.0616 -0.127249,0 -0.445371,0.0178 -0.57262,0.0178 -0.152699,0 -0.343572,-0.0178 -0.470821,-0.0178 -0.03818,0 -0.08908,0.0178 -0.08908,0.0934 0,0.0657 0.0509,0.0657 0.127249,0.0657 0.203599,0 0.203599,0.0277 0.216324,0.13718 l 0.305397,2.69984 c 0,0.0891 0.01273,0.12089 0.08908,0.12089 0.07635,0 0.101799,-0.0394 0.127249,-0.0891 l 1.387014,-2.27839 0.241773,2.25294 c 0.01273,0.0916 0.03818,0.11453 0.101799,0.11453 0.07635,0 0.101799,-0.0394 0.127249,-0.0929 z"
         id="path7263" />
      <path
         style="font-style:normal;font-variant:normal;font-weight:normal;font-stretch:normal;letter-spacing:normal;word-spacing:normal;text-anchor:start;fill:#000000;fill-opacity:1;fill-rule:evenodd;stroke:#000000;stroke-width:0;stroke-linecap:butt;stroke-linejoin:miter;stroke-miterlimit:10.43299961;stroke-dasharray:none;stroke-dashoffset:0;stroke-opacity:1"
         inkscape:connector-curvature="0"
         d="m 57.645364,196.88715 v -0.003 -0.004 -10e-4 -0.003 -0.001 -0.003 -0.003 -10e-4 -0.003 -0.003 -0.004 -0.003 -0.003 l -0.01273,-0.004 v -0.004 -0.004 -0.005 l -0.01272,-0.004 v -0.003 -0.003 -0.003 -0.003 -0.003 l -0.01273,-0.004 v -0.003 -0.003 -0.004 l -0.01272,-0.004 v -0.003 -0.004 -0.004 l -0.01273,-0.004 v -0.004 -0.004 l -0.01272,-0.004 v -0.004 -0.005 l -0.01273,-0.004 v -0.005 -0.005 l -0.01272,-0.004 v -0.005 c -0.788944,-0.79912 -0.992543,-1.99641 -0.992543,-2.96668 0,-1.1035 0.241773,-2.20701 1.017992,-2.99837 0.07635,-0.0775 0.07635,-0.0894 0.07635,-0.10931 0,-0.0438 -0.01273,-0.0616 -0.0509,-0.0616 -0.06362,0 -0.636245,0.42946 -1.017992,1.23469 -0.318122,0.69784 -0.394472,1.40165 -0.394472,1.93457 0,0.495 0.06362,1.26053 0.419922,1.97796 0.381747,0.78004 0.928918,1.19105 0.992542,1.19105 0.03817,0 0.0509,-0.0178 0.0509,-0.0636 z"
         id="path7265" />
      <path
         style="font-style:normal;font-variant:normal;font-weight:normal;font-stretch:normal;letter-spacing:normal;word-spacing:normal;text-anchor:start;fill:#000000;fill-opacity:1;fill-rule:evenodd;stroke:#000000;stroke-width:0;stroke-linecap:butt;stroke-linejoin:miter;stroke-miterlimit:10.43299961;stroke-dasharray:none;stroke-dashoffset:0;stroke-opacity:1"
         inkscape:connector-curvature="0"
         d="m 61.793682,191.75966 0.08907,-0.0895 c 0.190873,-0.19087 0.407197,-0.40554 0.839843,-0.43735 0.06362,-0.006 0.127249,-0.006 0.127249,-0.1214 0,-0.0496 -0.03817,-0.0755 -0.08907,-0.0755 -0.165424,0 -0.343572,0.0198 -0.521721,0.0198 -0.203598,0 -0.432647,-0.0198 -0.636245,-0.0198 -0.03818,0 -0.114524,0 -0.114524,0.12127 0,0.0696 0.06362,0.0756 0.08907,0.0756 0.0509,0 0.229048,0.0118 0.229048,0.14506 0,0.10943 -0.139974,0.27244 -0.165423,0.30425 l -1.476089,1.69394 -0.699869,-1.8829 c -0.03817,-0.0895 -0.03817,-0.10129 -0.03817,-0.10727 0,-0.15308 0.318122,-0.15308 0.381747,-0.15308 0.08907,0 0.152699,0 0.152699,-0.12725 0,-0.0696 -0.07635,-0.0696 -0.101799,-0.0696 -0.178149,0 -0.610796,0.0198 -0.801669,0.0198 -0.152699,0 -0.547171,-0.0198 -0.69987,-0.0198 -0.03817,0 -0.127249,0 -0.127249,0.12725 0,0.0696 0.06363,0.0696 0.152699,0.0696 0.369022,0 0.407197,0.0576 0.458096,0.21466 l 0.776219,2.08765 c 0.01273,0.0179 0.02545,0.0876 0.02545,0.1074 0,0.0179 -0.254498,1.03988 -0.279948,1.15326 -0.07635,0.34802 -0.08907,0.36838 -0.59807,0.37347 -0.114524,0 -0.165424,0 -0.165424,0.12725 0,0.07 0.07635,0.07 0.08908,0.07 0.178148,0 0.610795,-0.0204 0.788944,-0.0204 0.178148,0 0.636245,0.0204 0.814393,0.0204 0.0509,0 0.114524,0 0.114524,-0.12725 0,-0.07 -0.0509,-0.07 -0.165423,-0.07 -0.01273,0 -0.139974,0 -0.241774,-0.0114 -0.139973,-0.014 -0.178148,-0.0255 -0.178148,-0.10167 0,-0.0457 0.06362,-0.26633 0.08907,-0.39956 l 0.229048,-0.89469 c 0.02545,-0.11936 0.03818,-0.13921 0.08908,-0.19686 z"
         id="path7267" />
      <path
         style="font-style:normal;font-variant:normal;font-weight:normal;font-stretch:normal;letter-spacing:normal;word-spacing:normal;text-anchor:start;fill:#000000;fill-opacity:1;fill-rule:evenodd;stroke:#000000;stroke-width:0;stroke-linecap:butt;stroke-linejoin:miter;stroke-miterlimit:10.43299961;stroke-dasharray:none;stroke-dashoffset:0;stroke-opacity:1"
         inkscape:connector-curvature="0"
         d="m 63.333395,195.36017 v -0.0382 l -0.01273,-0.0382 v -0.0369 -0.0356 -0.0344 l -0.01273,-0.0344 v -0.0318 l -0.01272,-0.0314 v -0.0302 l -0.01273,-0.0291 -0.01272,-0.0279 v -0.0269 l -0.01273,-0.0256 -0.01272,-0.0244 -0.01273,-0.0233 -0.01272,-0.0219 -0.01272,-0.0209 -0.01272,-0.0195 -0.01273,-0.0183 -0.02545,-0.0169 -0.01272,-0.0158 -0.01273,-0.0144 -0.02545,-0.0131 -0.01272,-0.0118 -0.01272,-0.0104 -0.02545,-0.009 -0.02545,-0.008 -0.01272,-0.006 -0.02545,-0.005 -0.02545,-0.004 -0.01272,-0.002 -0.02545,-6.4e-4 c -0.216324,0 -0.343573,0.15906 -0.343573,0.33594 0,0.17077 0.127249,0.33619 0.343573,0.33619 0.07635,0 0.152699,-0.0255 0.216323,-0.0814 0.02545,-0.014 0.02545,-0.0204 0.03817,-0.0204 0,0 0.01273,0.006 0.01273,0.0954 0,0.46955 -0.229049,0.84875 -0.432647,1.05744 -0.07635,0.07 -0.07635,0.084 -0.07635,0.1018 0,0.0458 0.03817,0.07 0.06362,0.07 0.07635,0 0.585346,-0.48736 0.585346,-1.22922 z"
         id="path7269" />
      <path
         style="font-style:normal;font-variant:normal;font-weight:normal;font-stretch:normal;letter-spacing:normal;word-spacing:normal;text-anchor:start;fill:#000000;fill-opacity:1;fill-rule:evenodd;stroke:#000000;stroke-width:0;stroke-linecap:butt;stroke-linejoin:miter;stroke-miterlimit:10.43299961;stroke-dasharray:none;stroke-dashoffset:0;stroke-opacity:1"
         inkscape:connector-curvature="0"
         d="m 67.927084,192.75983 -0.534446,-1.26065 c -0.01273,-0.0517 -0.02545,-0.0755 -0.02545,-0.0814 0,-0.0398 0.101799,-0.15906 0.369022,-0.18489 0.06363,-0.006 0.127249,-0.012 0.127249,-0.1214 0,-0.0755 -0.07635,-0.0755 -0.08907,-0.0755 -0.267223,0 -0.534446,0.0198 -0.801669,0.0198 -0.165423,0 -0.559895,-0.0198 -0.712594,-0.0198 -0.03817,0 -0.114524,0 -0.114524,0.12725 0,0.0696 0.06362,0.0696 0.139974,0.0696 0.381747,0 0.419921,0.0636 0.483546,0.2027 l 0.750769,1.76965 -1.34884,1.43945 -0.07635,0.0696 c -0.305398,0.33607 -0.610795,0.43723 -0.928918,0.45504 -0.08907,0.006 -0.139974,0.006 -0.139974,0.12725 0,0.006 0,0.07 0.07635,0.07 0.190873,0 0.407197,-0.0204 0.59807,-0.0204 0.229048,0 0.483546,0.0204 0.712595,0.0204 0.03817,0 0.114524,0 0.114524,-0.12725 0,-0.0636 -0.06363,-0.07 -0.07635,-0.07 -0.06362,-0.005 -0.254498,-0.0178 -0.254498,-0.1966 0,-0.10141 0.08908,-0.20283 0.165424,-0.28427 l 0.64897,-0.686 0.57262,-0.62034 0.636246,1.51503 c 0.02545,0.0696 0.03817,0.0756 0.03817,0.0896 0,0.0496 -0.127249,0.15715 -0.369022,0.1826 -0.07635,0.006 -0.127249,0.014 -0.127249,0.12216 0,0.0751 0.06362,0.0751 0.08907,0.0751 0.178149,0 0.623521,-0.0204 0.801669,-0.0204 0.165424,0 0.547171,0.0204 0.69987,0.0204 0.0509,0 0.127249,0 0.127249,-0.12089 0,-0.0764 -0.06363,-0.0764 -0.114524,-0.0764 -0.419922,-0.005 -0.432647,-0.0254 -0.547171,-0.27804 -0.241773,-0.59056 -0.67442,-1.57877 -0.814394,-1.95849 0.432647,-0.44537 1.094342,-1.19894 1.29794,-1.37594 0.178149,-0.15308 0.419922,-0.30412 0.801669,-0.32397 0.08907,-0.006 0.139974,-0.006 0.139974,-0.12725 0,-0.006 0,-0.0696 -0.07635,-0.0696 -0.190873,0 -0.407196,0.0198 -0.59807,0.0198 -0.229048,0 -0.470821,-0.0198 -0.69987,-0.0198 -0.03817,0 -0.127249,0 -0.127249,0.12725 0,0.0436 0.03817,0.0636 0.07635,0.0696 0.06362,0.006 0.254498,0.0198 0.254498,0.19672 0,0.0896 -0.06363,0.17102 -0.114524,0.22867 z"
         id="path7271" />
      <path
         style="font-style:normal;font-variant:normal;font-weight:normal;font-stretch:normal;letter-spacing:normal;word-spacing:normal;text-anchor:start;fill:#000000;fill-opacity:1;fill-rule:evenodd;stroke:#000000;stroke-width:0;stroke-linecap:butt;stroke-linejoin:miter;stroke-miterlimit:10.43299961;stroke-dasharray:none;stroke-dashoffset:0;stroke-opacity:1"
         inkscape:connector-curvature="0"
         d="m 71.540956,195.36017 v -0.0382 -0.0382 -0.0369 -0.0356 l -0.01272,-0.0344 v -0.0344 l -0.01273,-0.0318 v -0.0314 l -0.01273,-0.0302 v -0.0291 l -0.01273,-0.0279 -0.01272,-0.0269 -0.01273,-0.0256 v -0.0244 l -0.01273,-0.0233 -0.01273,-0.0219 -0.02545,-0.0209 -0.01273,-0.0195 -0.01273,-0.0183 -0.01272,-0.0169 -0.01273,-0.0158 -0.02545,-0.0144 -0.01273,-0.0131 -0.01272,-0.0118 -0.02545,-0.0104 -0.02545,-0.009 -0.01273,-0.008 -0.02545,-0.006 -0.01272,-0.005 -0.02545,-0.004 -0.02545,-0.002 -0.02545,-6.4e-4 c -0.203599,0 -0.330848,0.15906 -0.330848,0.33594 0,0.17077 0.127249,0.33619 0.330848,0.33619 0.07635,0 0.165424,-0.0255 0.229048,-0.0814 0.01273,-0.014 0.02545,-0.0204 0.02545,-0.0204 0.01273,0 0.01273,0.006 0.01273,0.0954 0,0.46955 -0.216324,0.84875 -0.432647,1.05744 -0.06362,0.07 -0.06362,0.084 -0.06362,0.1018 0,0.0458 0.02545,0.07 0.06362,0.07 0.06363,0 0.572621,-0.48736 0.572621,-1.22922 z"
         id="path7273" />
      <path
         style="font-style:normal;font-variant:normal;font-weight:normal;font-stretch:normal;letter-spacing:normal;word-spacing:normal;text-anchor:start;fill:#000000;fill-opacity:1;fill-rule:evenodd;stroke:#000000;stroke-width:0;stroke-linecap:butt;stroke-linejoin:miter;stroke-miterlimit:10.43299961;stroke-dasharray:none;stroke-dashoffset:0;stroke-opacity:1"
         inkscape:connector-curvature="0"
         d="m 76.09647,193.86919 -0.01273,-0.0461 v -0.0451 -0.0442 -0.0431 l -0.01272,-0.0835 -0.01272,-0.0795 -0.01273,-0.0758 -0.01272,-0.0723 -0.02545,-0.0686 -0.01273,-0.065 -0.02545,-0.0616 -0.02545,-0.0583 -0.03817,-0.0548 -0.02545,-0.0517 -0.03817,-0.0485 -0.02545,-0.0453 -0.03817,-0.0422 -0.03817,-0.0393 -0.03817,-0.0364 -0.0509,-0.0336 -0.03817,-0.0308 -0.03818,-0.028 -0.0509,-0.0255 -0.03817,-0.0229 -0.0509,-0.0204 -0.03817,-0.0179 -0.0509,-0.0155 -0.03818,-0.0132 -0.0509,-0.0111 -0.0509,-0.009 -0.03817,-0.007 -0.0509,-0.005 -0.03817,-0.003 -0.0509,-0.001 v 0.13921 c 0.62352,0 0.62352,0.83106 0.62352,1.32415 0,0.23465 0,0.60253 0.01273,0.7098 v 0 c -0.559896,0.48978 -1.043442,0.55849 -1.29794,0.55849 -0.381747,0 -0.572621,-0.28605 -0.572621,-0.6916 0,-0.31023 0.165424,-0.99419 0.369022,-1.3183 0.292673,-0.46318 0.636245,-0.58254 0.865294,-0.58254 v -0.13921 c -0.865294,0 -1.705137,0.90665 -1.705137,1.79943 0,0.59056 0.381747,1.0722 1.030717,1.0722 0.394472,0 0.852568,-0.14507 1.336114,-0.53343 0.08907,0.33619 0.292673,0.53343 0.572621,0.53343 0.343572,0 0.534446,-0.34854 0.534446,-0.44983 0,-0.0458 -0.03817,-0.0636 -0.07635,-0.0636 -0.03817,0 -0.06362,0.0178 -0.07635,0.0636 -0.114524,0.30985 -0.343572,0.30985 -0.356297,0.30985 -0.190874,0 -0.190874,-0.49487 -0.190874,-0.64591 0,-0.13323 0,-0.1471 0.06363,-0.22269 0.585345,-0.74759 0.725319,-1.48321 0.725319,-1.48919 0,-0.014 -0.01273,-0.0636 -0.07635,-0.0636 -0.06363,0 -0.06363,0.0178 -0.1018,0.13323 -0.114524,0.39956 -0.318122,0.88082 -0.610795,1.25455 z"
         id="path7275" />
      <path
         style="font-style:normal;font-variant:normal;font-weight:normal;font-stretch:normal;letter-spacing:normal;word-spacing:normal;text-anchor:start;fill:#000000;fill-opacity:1;fill-rule:evenodd;stroke:#000000;stroke-width:0;stroke-linecap:butt;stroke-linejoin:miter;stroke-miterlimit:10.43299961;stroke-dasharray:none;stroke-dashoffset:0;stroke-opacity:1"
         inkscape:connector-curvature="0"
         d="m 78.985023,193.78177 v -0.0472 -0.0487 -0.0503 -0.0517 -0.10727 l -0.01273,-0.11224 -0.01272,-0.11668 -0.01273,-0.12076 -0.01273,-0.12433 -0.02545,-0.12724 -0.02545,-0.12993 -0.02545,-0.13208 -0.03818,-0.13361 -0.03817,-0.13489 -0.03817,-0.13552 -0.0509,-0.13577 -0.02545,-0.0677 -0.03817,-0.0677 -0.02545,-0.0676 -0.02545,-0.0672 c -0.381747,-0.7794 -0.928918,-1.19092 -0.992542,-1.19092 -0.03817,0 -0.06363,0.0238 -0.06363,0.0616 0,0.0199 0,0.0318 0.114524,0.1471 0.62352,0.62632 0.992543,1.63439 0.992543,2.96058 0,1.08353 -0.241774,2.19937 -1.030717,2.9985 -0.07635,0.0751 -0.07635,0.0891 -0.07635,0.10688 0,0.0382 0.02545,0.0636 0.06363,0.0636 0.06362,0 0.636245,-0.43137 1.005267,-1.23686 0.318122,-0.69542 0.394472,-1.39936 0.394472,-1.93215 z"
         id="path7277" />
    </g>
  </g>
</svg>
